<svg width="31" height="31" viewBox="0 0 31 31" fill="none" xmlns="http://www.w3.org/2000/svg">
<path d="M15.5 27.125C15.134 27.125 14.8273 27.0012 14.5797 26.7536C14.3321 26.5061 14.2083 26.1993 14.2083 25.8333V16.7917H5.16667C4.80069 16.7917 4.49392 16.6679 4.24635 16.4203C3.99878 16.1727 3.875 15.866 3.875 15.5C3.875 15.134 3.99878 14.8273 4.24635 14.5797C4.49392 14.3321 4.80069 14.2083 5.16667 14.2083H14.2083V5.16667C14.2083 4.80069 14.3321 4.49392 14.5797 4.24635C14.8273 3.99878 15.134 3.875 15.5 3.875C15.866 3.875 16.1727 3.99878 16.4203 4.24635C16.6679 4.49392 16.7917 4.80069 16.7917 5.16667V14.2083H25.8333C26.1993 14.2083 26.5061 14.3321 26.7536 14.5797C27.0012 14.8273 27.125 15.134 27.125 15.5C27.125 15.866 27.0012 16.1727 26.7536 16.4203C26.5061 16.6679 26.1993 16.7917 25.8333 16.7917H16.7917V25.8333C16.7917 26.1993 16.6679 26.5061 16.4203 26.7536C16.1727 27.0012 15.866 27.125 15.5 27.125Z" fill="url(#paint0_linear_163_484)"/>
<defs>
<linearGradient id="paint0_linear_163_484" x1="15.5" y1="3.875" x2="15.5" y2="27.125" gradientUnits="userSpaceOnUse">
<stop stop-color="#56CC99"/>
<stop offset="1" stop-color="#22577A"/>
</linearGradient>
</defs>
</svg>
