<svg width="32" height="32" viewBox="0 0 32 32" fill="none" xmlns="http://www.w3.org/2000/svg">
<g clip-path="url(#clip0_916_15)">
<path d="M13.7647 9.93604C12.2069 11.1171 10.7329 12.4048 9.35323 13.7897C2.85266 20.2903 -0.438772 27.5337 1.9978 29.9726C4.43437 32.4092 11.6801 29.1155 18.1784 22.6172C19.5635 21.2368 20.8511 19.762 22.0321 18.2035" stroke="#3ECB90" stroke-width="2.57143" stroke-linecap="round" stroke-linejoin="round"/>
<path d="M22.0318 18.2035C25.8649 23.2915 27.4261 28.0778 25.5335 29.9703C23.0947 32.4092 15.8512 29.1155 9.35066 22.6172C2.85466 16.1143 -0.436767 8.87318 1.9998 6.43432C3.89238 4.54404 8.67866 6.10518 13.7667 9.93604" stroke="#3ECB90" stroke-width="2.57143" stroke-linecap="round" stroke-linejoin="round"/>
<path d="M18.3592 8.25145C17.6392 8.12574 17.6392 7.09488 18.3592 6.97145C19.6312 6.75111 20.8086 6.15651 21.741 5.26363C22.6734 4.37076 23.3183 3.22016 23.5935 1.95888L23.6346 1.76002C23.7901 1.05145 24.8004 1.04688 24.9604 1.75316L25.0152 1.98402C25.3021 3.23906 25.9532 4.38144 26.8868 5.26789C27.8204 6.15433 28.995 6.74537 30.2632 6.96688C30.9855 7.09259 30.9855 8.13031 30.2632 8.25374C28.995 8.47524 27.8204 9.06628 26.8868 9.95273C25.9532 10.8392 25.3021 11.9816 25.0152 13.2366L24.9604 13.4675C24.8004 14.176 23.7901 14.1715 23.6346 13.4629L23.5889 13.264C23.3138 12.0027 22.6688 10.8521 21.7364 9.95927C20.8041 9.06639 19.6266 8.47179 18.3546 8.25145M12.6221 18.2035C12.6221 18.5066 12.7425 18.7972 12.9568 19.0116C13.1711 19.2259 13.4618 19.3463 13.7649 19.3463C14.068 19.3463 14.3587 19.2259 14.5731 19.0116C14.7874 18.7972 14.9078 18.5066 14.9078 18.2035C14.9078 17.9003 14.7874 17.6097 14.5731 17.3953C14.3587 17.181 14.068 17.0606 13.7649 17.0606C13.4618 17.0606 13.1711 17.181 12.9568 17.3953C12.7425 17.6097 12.6221 17.9003 12.6221 18.2035Z" stroke="#3ECB90" stroke-width="2.57143" stroke-linecap="round" stroke-linejoin="round"/>
</g>
<defs>
<clipPath id="clip0_916_15">
<rect width="32" height="32" fill="white"/>
</clipPath>
</defs>
</svg>
