<svg width="37" height="37" viewBox="0 0 37 37" fill="none" xmlns="http://www.w3.org/2000/svg">
<path d="M16.1416 11.7988C14.3891 13.1275 12.7308 14.5761 11.1788 16.1342C3.86561 23.4473 0.162754 31.5962 2.9039 34.3399C5.64504 37.0811 13.7965 33.3756 21.107 26.0651C22.6653 24.5121 24.1139 22.853 25.4425 21.0996" stroke="#F0C638" stroke-width="2.57143" stroke-linecap="round" stroke-linejoin="round"/>
<path d="M25.4429 21.0996C29.7552 26.8236 31.5115 32.2082 29.3823 34.3374C26.6386 37.0811 18.4897 33.3756 11.1766 26.0651C3.8686 18.7494 0.165741 10.6031 2.90688 7.85936C5.03603 5.73279 10.4206 7.48907 16.1446 11.7988" stroke="#F0C638" stroke-width="2.57143" stroke-linecap="round" stroke-linejoin="round"/>
<path d="M21.3098 9.90362C20.4998 9.76219 20.4998 8.60247 21.3098 8.46362C22.7408 8.21573 24.0654 7.5468 25.1143 6.54232C26.1632 5.53784 26.8888 4.24341 27.1983 2.82447L27.2446 2.60076C27.4195 1.80362 28.556 1.79847 28.736 2.59305L28.7978 2.85276C29.1205 4.26467 29.853 5.54985 30.9033 6.54711C31.9536 7.54436 33.275 8.20928 34.7018 8.45847C35.5143 8.5999 35.5143 9.76733 34.7018 9.90619C33.275 10.1554 31.9536 10.8203 30.9033 11.8176C29.853 12.8148 29.1205 14.1 28.7978 15.5119L28.736 15.7716C28.556 16.5688 27.4195 16.5636 27.2446 15.7665L27.1932 15.5428C26.8836 14.1238 26.158 12.8294 25.1091 11.8249C24.0602 10.8204 22.7356 10.1515 21.3046 9.90362M14.8555 21.0996C14.8555 21.4406 14.9909 21.7676 15.232 22.0088C15.4732 22.2499 15.8002 22.3853 16.1412 22.3853C16.4822 22.3853 16.8092 22.2499 17.0503 22.0088C17.2914 21.7676 17.4269 21.4406 17.4269 21.0996C17.4269 20.7586 17.2914 20.4316 17.0503 20.1905C16.8092 19.9494 16.4822 19.8139 16.1412 19.8139C15.8002 19.8139 15.4732 19.9494 15.232 20.1905C14.9909 20.4316 14.8555 20.7586 14.8555 21.0996Z" stroke="#F0C638" stroke-width="2.57143" stroke-linecap="round" stroke-linejoin="round"/>
</svg>
