<svg width="30" height="30" viewBox="0 0 30 30" fill="none" xmlns="http://www.w3.org/2000/svg">
<path d="M3.66672 13.5834C4.0278 13.5838 4.3751 13.722 4.63766 13.9699C4.90022 14.2178 5.05822 14.5566 5.07938 14.917C5.10055 15.2775 4.98327 15.6324 4.75152 15.9093C4.51976 16.1862 4.19103 16.3641 3.83247 16.4068L3.66672 16.4167H2.25006C1.88898 16.4163 1.54168 16.278 1.27912 16.0302C1.01656 15.7823 0.858559 15.4435 0.837398 15.0831C0.816237 14.7226 0.933514 14.3677 1.16527 14.0908C1.39702 13.8139 1.72576 13.6359 2.08431 13.5933L2.25006 13.5834H3.66672ZM15.0001 0.833374C15.347 0.83342 15.682 0.960812 15.9413 1.19139C16.2006 1.42196 16.3662 1.73968 16.4068 2.08429L16.4167 2.25004V3.66671C16.4163 4.02779 16.2781 4.37509 16.0302 4.63765C15.7823 4.90021 15.4435 5.05821 15.0831 5.07937C14.7226 5.10053 14.3677 4.98325 14.0908 4.7515C13.8139 4.51975 13.636 4.19101 13.5933 3.83246L13.5834 3.66671V2.25004C13.5834 1.87432 13.7326 1.51398 13.9983 1.24831C14.264 0.982629 14.6243 0.833374 15.0001 0.833374ZM27.7501 13.5834C28.1111 13.5838 28.4584 13.722 28.721 13.9699C28.9836 14.2178 29.1416 14.5566 29.1627 14.917C29.1839 15.2775 29.0666 15.6324 28.8348 15.9093C28.6031 16.1862 28.2744 16.3641 27.9158 16.4068L27.7501 16.4167H26.3334C25.9723 16.4163 25.625 16.278 25.3625 16.0302C25.0999 15.7823 24.9419 15.4435 24.9207 15.0831C24.8996 14.7226 25.0168 14.3677 25.2486 14.0908C25.4804 13.8139 25.8091 13.6359 26.1676 13.5933L26.3334 13.5834H27.7501ZM4.93181 4.93179C5.17575 4.68787 5.50031 4.54135 5.84459 4.5197C6.18888 4.49805 6.52924 4.60277 6.80181 4.81421L6.93498 4.93179L7.92664 5.92346C8.18072 6.1784 8.32823 6.52049 8.33921 6.88025C8.3502 7.24001 8.22384 7.59047 7.98579 7.86044C7.74774 8.1304 7.41586 8.29964 7.05755 8.33377C6.69925 8.3679 6.34138 8.26437 6.05664 8.04421L5.92347 7.92662L4.93181 6.93496C4.66622 6.66929 4.51703 6.30902 4.51703 5.93337C4.51703 5.55772 4.66622 5.19745 4.93181 4.93179ZM23.0651 4.93179C23.3201 4.67771 23.6622 4.5302 24.0219 4.51922C24.3817 4.50823 24.7321 4.6346 25.0021 4.87264C25.2721 5.11069 25.4413 5.44257 25.4755 5.80088C25.5096 6.15919 25.4061 6.51705 25.1859 6.80179L25.0683 6.93496L24.0766 7.92662C23.8217 8.1807 23.4796 8.32821 23.1198 8.3392C22.7601 8.35018 22.4096 8.22382 22.1397 7.98577C21.8697 7.74772 21.7005 7.41584 21.6663 7.05754C21.6322 6.69923 21.7357 6.34136 21.9559 6.05662L22.0735 5.92346L23.0651 4.93179ZM17.8334 23.5C18.2091 23.5 18.5694 23.6493 18.8351 23.915C19.1008 24.1806 19.2501 24.541 19.2501 24.9167C19.2501 26.0439 18.8023 27.1249 18.0053 27.9219C17.2082 28.7189 16.1272 29.1667 15.0001 29.1667C13.8729 29.1667 12.7919 28.7189 11.9949 27.9219C11.1978 27.1249 10.7501 26.0439 10.7501 24.9167C10.7501 24.5697 10.8775 24.2348 11.1081 23.9755C11.3386 23.7162 11.6564 23.5506 12.001 23.51L12.1667 23.5H17.8334ZM15.0001 6.50004C16.7841 6.50004 18.5228 7.06136 19.9701 8.10448C21.4174 9.14761 22.4997 10.6197 23.0639 12.3121C23.628 14.0046 23.6454 15.8316 23.1134 17.5345C22.5815 19.2373 21.5273 20.7296 20.1001 21.8C19.9048 21.9467 19.6749 22.0404 19.4328 22.072L19.2501 22.0834H10.7501C10.4435 22.0834 10.1453 21.984 9.90006 21.8C8.47286 20.7296 7.41862 19.2373 6.88669 17.5345C6.35476 15.8316 6.3721 14.0046 6.93625 12.3121C7.5004 10.6197 8.58276 9.14761 10.03 8.10448C11.4773 7.06136 13.2161 6.50004 15.0001 6.50004Z" fill="#F0C638"/>
</svg>
