<svg width="52" height="50" viewBox="0 0 52 50" fill="none" xmlns="http://www.w3.org/2000/svg">
<g filter="url(#filter0_d_988_83)">
<ellipse cx="25.0004" cy="19.2356" rx="11.0629" ry="4.97778" fill="#00A974"/>
<path d="M32.8571 2H17.1429C9.28571 2 3 8.22222 3 16V42.4444C3 43.0667 3.31429 43.5333 3.94286 43.8444C4.17857 44 4.41429 44 4.57143 44C4.88571 44 5.35714 43.8444 5.67143 43.6889C11.1714 38.8667 18.2429 36.2222 25.4714 36.2222H32.8571C40.7143 36.2222 47 30 47 22.2222V16C47 8.22222 40.7143 2 32.8571 2ZM19.8143 20.2C19.6571 20.3556 19.5 20.5111 19.3429 20.5111C19.1857 20.6667 18.8714 20.6667 18.7143 20.6667C18.2429 20.6667 17.9286 20.5111 17.6143 20.2C17.3 19.8889 17.1429 19.5778 17.1429 19.1111C17.1429 18.9556 17.1429 18.6444 17.3 18.4889C17.4571 18.3333 17.4571 18.1778 17.6143 18.0222C18.0857 17.5556 18.7143 17.4 19.3429 17.7111C19.5 17.8667 19.6571 17.8667 19.8143 18.0222C19.9714 18.1778 20.1286 18.3333 20.1286 18.4889C20.2857 18.6444 20.2857 18.9556 20.2857 19.1111C20.2857 19.5778 20.1286 19.8889 19.8143 20.2ZM26.1 20.2C25.9429 20.2 25.9429 20.3556 25.9429 20.3556C25.7857 20.3556 25.7857 20.5111 25.6286 20.5111C25.4714 20.5111 25.4714 20.5111 25.3143 20.6667C25.1571 20.6667 25.1571 20.6667 25 20.6667C24.5286 20.6667 24.2143 20.5111 23.9 20.2C23.5857 19.8889 23.4286 19.5778 23.4286 19.1111C23.4286 18.6444 23.5857 18.3333 23.9 18.0222C24.0571 17.8667 24.2143 17.7111 24.3714 17.7111C25 17.4 25.6286 17.5556 26.1 18.0222C26.4143 18.3333 26.5714 18.6444 26.5714 19.1111C26.5714 19.5778 26.4143 19.8889 26.1 20.2ZM32.7 19.7333C32.5429 19.8889 32.5429 20.0444 32.3857 20.2C32.2286 20.3556 32.0714 20.5111 31.9143 20.5111C31.7571 20.6667 31.4429 20.6667 31.2857 20.6667C31.1286 20.6667 30.8143 20.6667 30.6571 20.5111C30.5 20.3556 30.3429 20.3556 30.1857 20.2C30.0286 20.0444 29.8714 19.8889 29.8714 19.7333C29.8714 19.5778 29.7143 19.2667 29.7143 19.1111C29.7143 18.9556 29.7143 18.6444 29.8714 18.4889C30.0286 18.3333 30.0286 18.1778 30.1857 18.0222C30.3429 17.8667 30.5 17.7111 30.6571 17.7111C30.9714 17.5556 31.4429 17.5556 31.9143 17.7111C32.0714 17.8667 32.2286 17.8667 32.3857 18.0222C32.5429 18.1778 32.7 18.3333 32.7 18.4889C32.7 18.6444 32.8571 18.9556 32.8571 19.1111C32.8571 19.2667 32.8571 19.5778 32.7 19.7333Z" fill="#00A974"/>
<ellipse cx="14.9429" cy="18.9244" rx="3.01714" ry="2.98667" fill="white"/>
<ellipse cx="24.9996" cy="18.9244" rx="3.01714" ry="2.98667" fill="white"/>
<ellipse cx="35.0572" cy="18.9244" rx="3.01714" ry="2.98667" fill="white"/>
</g>
<defs>
<filter id="filter0_d_988_83" x="0.9" y="0.9" width="50.2" height="48.2" filterUnits="userSpaceOnUse" color-interpolation-filters="sRGB">
<feFlood flood-opacity="0" result="BackgroundImageFix"/>
<feColorMatrix in="SourceAlpha" type="matrix" values="0 0 0 0 0 0 0 0 0 0 0 0 0 0 0 0 0 0 127 0" result="hardAlpha"/>
<feOffset dx="1" dy="2"/>
<feGaussianBlur stdDeviation="1.55"/>
<feComposite in2="hardAlpha" operator="out"/>
<feColorMatrix type="matrix" values="0 0 0 0 0 0 0 0 0 0 0 0 0 0 0 0 0 0 0.25 0"/>
<feBlend mode="normal" in2="BackgroundImageFix" result="effect1_dropShadow_988_83"/>
<feBlend mode="normal" in="SourceGraphic" in2="effect1_dropShadow_988_83" result="shape"/>
</filter>
</defs>
</svg>
