<svg width="21" height="21" viewBox="0 0 21 21" fill="none" xmlns="http://www.w3.org/2000/svg">
<path d="M1.29618 19.6021L7.66018 13.2381M15.6742 10.4081L13.7692 16.1241C13.7386 16.2155 13.6865 16.2982 13.6173 16.3652C13.548 16.4322 13.4636 16.4816 13.3712 16.5091L1.69318 19.9811C1.58798 20.0123 1.47621 20.0141 1.37005 19.9862C1.2639 19.9584 1.16742 19.9019 1.09111 19.823C1.01481 19.7442 0.961597 19.6459 0.937278 19.5388C0.912959 19.4318 0.918461 19.3202 0.953185 19.2161L4.74518 7.84206C4.77236 7.76039 4.81679 7.68553 4.87546 7.62255C4.93412 7.55957 5.00565 7.50995 5.08518 7.47706L10.4722 5.25906C10.5817 5.21383 10.7022 5.20204 10.8184 5.22517C10.9346 5.24831 11.0413 5.30533 11.1252 5.38906L15.5292 9.79406C15.608 9.87284 15.6633 9.97202 15.6889 10.0805C15.7145 10.1889 15.7094 10.3023 15.6742 10.4081Z" stroke="#55B8D0" stroke-width="1.5" stroke-linecap="round" stroke-linejoin="round"/>
<path d="M16.4034 2.18206L18.7674 4.54606C18.9451 4.71602 19.087 4.91975 19.1848 5.1453C19.2826 5.37085 19.3344 5.61367 19.3372 5.85951C19.3399 6.10535 19.2935 6.34926 19.2006 6.57692C19.1078 6.80457 18.9704 7.01139 18.7966 7.18524C18.6227 7.35909 18.4159 7.49646 18.1883 7.58928C17.9606 7.68211 17.7167 7.72853 17.4709 7.72581C17.225 7.72309 16.9822 7.67129 16.7567 7.57345C16.5311 7.47562 16.3274 7.33371 16.1574 7.15606L13.7924 4.79206C13.4588 4.44341 13.2751 3.978 13.2804 3.49551C13.2857 3.01302 13.4798 2.5518 13.821 2.2106C14.1621 1.86941 14.6234 1.67537 15.1059 1.67003C15.5884 1.6647 16.0548 1.84849 16.4034 2.18206Z" fill="#55B8D0" stroke="#55B8D0" stroke-width="1.5" stroke-linecap="round" stroke-linejoin="round"/>
<path d="M9.78108 11.1161C9.64271 10.9729 9.47719 10.8586 9.29419 10.78C9.11118 10.7014 8.91435 10.66 8.71518 10.6583C8.51601 10.6565 8.31849 10.6945 8.13415 10.7699C7.94981 10.8453 7.78233 10.9567 7.64149 11.0975C7.50065 11.2384 7.38927 11.4059 7.31385 11.5902C7.23843 11.7745 7.20047 11.9721 7.20221 12.1712C7.20394 12.3704 7.24531 12.5672 7.32393 12.7502C7.40254 12.9332 7.51682 13.0988 7.66008 13.2371C7.94298 13.5104 8.32189 13.6616 8.71518 13.6581C9.10848 13.6547 9.4847 13.497 9.76281 13.2189C10.0409 12.9408 10.1987 12.5645 10.2021 12.1712C10.2055 11.7779 10.0543 11.399 9.78108 11.1161Z" stroke="#55B8D0" stroke-width="1.5" stroke-linecap="round" stroke-linejoin="round"/>
</svg>
