<svg width="34" height="34" viewBox="0 0 34 34" fill="none" xmlns="http://www.w3.org/2000/svg">
<path d="M5.66672 15.5833C6.0278 15.5837 6.3751 15.7219 6.63766 15.9698C6.90022 16.2177 7.05822 16.5564 7.07938 16.9169C7.10055 17.2774 6.98327 17.6323 6.75152 17.9092C6.51976 18.1861 6.19103 18.364 5.83247 18.4067L5.66672 18.4166H4.25006C3.88898 18.4162 3.54168 18.2779 3.27912 18.0301C3.01656 17.7822 2.85856 17.4434 2.8374 17.0829C2.81624 16.7225 2.93351 16.3675 3.16527 16.0907C3.39702 15.8138 3.72576 15.6358 4.08431 15.5932L4.25006 15.5833H5.66672ZM17.0001 2.83325C17.347 2.8333 17.682 2.96069 17.9413 3.19127C18.2006 3.42184 18.3662 3.73956 18.4068 4.08417L18.4167 4.24992V5.66659C18.4163 6.02766 18.2781 6.37496 18.0302 6.63752C17.7823 6.90008 17.4435 7.05808 17.0831 7.07925C16.7226 7.10041 16.3677 6.98313 16.0908 6.75138C15.8139 6.51962 15.636 6.19089 15.5933 5.83234L15.5834 5.66659V4.24992C15.5834 3.8742 15.7326 3.51386 15.9983 3.24818C16.264 2.98251 16.6243 2.83325 17.0001 2.83325ZM29.7501 15.5833C30.1111 15.5837 30.4584 15.7219 30.721 15.9698C30.9836 16.2177 31.1416 16.5564 31.1627 16.9169C31.1839 17.2774 31.0666 17.6323 30.8348 17.9092C30.6031 18.1861 30.2744 18.364 29.9158 18.4067L29.7501 18.4166H28.3334C27.9723 18.4162 27.625 18.2779 27.3625 18.0301C27.0999 17.7822 26.9419 17.4434 26.9207 17.0829C26.8996 16.7225 27.0168 16.3675 27.2486 16.0907C27.4804 15.8138 27.8091 15.6358 28.1676 15.5932L28.3334 15.5833H29.7501ZM6.93181 6.93167C7.17575 6.68775 7.50031 6.54122 7.84459 6.51958C8.18888 6.49793 8.52924 6.60265 8.80181 6.81409L8.93498 6.93167L9.92664 7.92334C10.1807 8.17828 10.3282 8.52037 10.3392 8.88013C10.3502 9.23989 10.2238 9.59035 9.98579 9.86031C9.74774 10.1303 9.41586 10.2995 9.05755 10.3337C8.69925 10.3678 8.34138 10.2643 8.05664 10.0441L7.92347 9.9265L6.93181 8.93484C6.66622 8.66917 6.51703 8.3089 6.51703 7.93325C6.51703 7.5576 6.66622 7.19733 6.93181 6.93167ZM25.0651 6.93167C25.3201 6.67759 25.6622 6.53008 26.0219 6.5191C26.3817 6.50811 26.7321 6.63447 27.0021 6.87252C27.2721 7.11057 27.4413 7.44245 27.4755 7.80076C27.5096 8.15906 27.4061 8.51693 27.1859 8.80167L27.0683 8.93484L26.0766 9.9265C25.8217 10.1806 25.4796 10.3281 25.1198 10.3391C24.7601 10.3501 24.4096 10.2237 24.1397 9.98565C23.8697 9.7476 23.7005 9.41572 23.6663 9.05741C23.6322 8.69911 23.7357 8.34124 23.9559 8.0565L24.0735 7.92334L25.0651 6.93167ZM19.8334 25.4999C20.2091 25.4999 20.5694 25.6492 20.8351 25.9148C21.1008 26.1805 21.2501 26.5409 21.2501 26.9166C21.2501 28.0438 20.8023 29.1248 20.0053 29.9218C19.2082 30.7188 18.1272 31.1666 17.0001 31.1666C15.8729 31.1666 14.7919 30.7188 13.9949 29.9218C13.1978 29.1248 12.7501 28.0438 12.7501 26.9166C12.7501 26.5696 12.8775 26.2347 13.1081 25.9754C13.3386 25.7161 13.6564 25.5504 14.001 25.5098L14.1667 25.4999H19.8334ZM17.0001 8.49992C18.7841 8.49992 20.5228 9.06124 21.9701 10.1044C23.4174 11.1475 24.4997 12.6195 25.0639 14.312C25.628 16.0044 25.6454 17.8315 25.1134 19.5343C24.5815 21.2372 23.5273 22.7295 22.1001 23.7999C21.9048 23.9466 21.6749 24.0403 21.4328 24.0719L21.2501 24.0833H12.7501C12.4435 24.0833 12.1453 23.9838 11.9001 23.7999C10.4729 22.7295 9.41862 21.2372 8.88669 19.5343C8.35476 17.8315 8.3721 16.0044 8.93625 14.312C9.5004 12.6195 10.5828 11.1475 12.03 10.1044C13.4773 9.06124 15.2161 8.49992 17.0001 8.49992Z" fill="#F0C638"/>
</svg>
