<svg width="12" height="12" viewBox="0 0 12 12" fill="none" xmlns="http://www.w3.org/2000/svg">
<g clip-path="url(#clip0_384_31)">
<mask id="mask0_384_31" style="mask-type:luminance" maskUnits="userSpaceOnUse" x="0" y="0" width="14" height="14">
<path d="M0 0H14V14H0V0Z" fill="white"/>
</mask>
<g mask="url(#mask0_384_31)">
<path d="M11.025 0.655762H13.172L8.482 6.02976L14 13.3438H9.68L6.294 8.90876L2.424 13.3438H0.275L5.291 7.59376L0 0.656762H4.43L7.486 4.70976L11.025 0.655762ZM10.27 12.0558H11.46L3.78 1.87676H2.504L10.27 12.0558Z" fill="white"/>
</g>
<mask id="mask1_384_31" style="mask-type:luminance" maskUnits="userSpaceOnUse" x="0" y="0" width="12" height="12">
<path d="M0 0H12V12H0V0Z" fill="white"/>
</mask>
<g mask="url(#mask1_384_31)">
<path d="M9.45 0.5625H11.2903L7.27029 5.16879L12 11.4379H8.29714L5.39486 7.6365L2.07771 11.4379H0.235714L4.53514 6.50936L0 0.563357H3.79714L6.41657 4.03736L9.45 0.5625ZM8.80286 10.3339H9.82286L3.24 1.60907H2.14629L8.80286 10.3339Z" fill="white"/>
</g>
</g>
<defs>
<clipPath id="clip0_384_31">
<rect width="12" height="12" fill="white"/>
</clipPath>
</defs>
</svg>
