<svg width="16" height="16" viewBox="0 0 16 16" fill="none" xmlns="http://www.w3.org/2000/svg">
<path d="M9.46683 1.9165C8.64908 1.9165 7.86482 2.24135 7.28658 2.81959C6.70835 3.39783 6.3835 4.18209 6.3835 4.99984V6.7165H4.7335C4.65083 6.7165 4.5835 6.78317 4.5835 6.8665V9.13317C4.5835 9.21584 4.65016 9.28317 4.7335 9.28317H6.3835V13.9332C6.3835 14.0158 6.45016 14.0832 6.5335 14.0832H8.80016C8.88283 14.0832 8.95016 14.0165 8.95016 13.9332V9.28317H10.6148C10.6835 9.28317 10.7435 9.2365 10.7602 9.16984L11.3268 6.90317C11.3324 6.88105 11.3329 6.85795 11.3282 6.83563C11.3235 6.81331 11.3138 6.79235 11.2997 6.77435C11.2857 6.75636 11.2678 6.74179 11.2473 6.73177C11.2268 6.72174 11.2043 6.71652 11.1815 6.7165H8.95016V4.99984C8.95016 4.93199 8.96353 4.8648 8.98949 4.80212C9.01546 4.73943 9.05351 4.68248 9.10149 4.6345C9.14947 4.58652 9.20643 4.54846 9.26911 4.5225C9.33179 4.49653 9.39898 4.48317 9.46683 4.48317H11.2002C11.2828 4.48317 11.3502 4.4165 11.3502 4.33317V2.0665C11.3502 1.98384 11.2835 1.9165 11.2002 1.9165H9.46683Z" fill="white"/>
</svg>
