<svg width="5" height="5" viewBox="0 0 5 5" fill="none" xmlns="http://www.w3.org/2000/svg">
<path d="M3.69881 1.34215C3.54507 1.18296 3.36116 1.05599 3.15782 0.968645C2.95448 0.881297 2.73578 0.835319 2.51448 0.833396C2.29318 0.831473 2.07372 0.873643 1.86889 0.957445C1.66406 1.04125 1.47798 1.165 1.32149 1.32149C1.165 1.47798 1.04125 1.66406 0.957444 1.86889C0.873642 2.07372 0.831473 2.29318 0.833396 2.51448C0.835319 2.73578 0.881296 2.95448 0.968644 3.15782C1.05599 3.36116 1.18296 3.54507 1.34215 3.69881C1.65648 4.00241 2.07749 4.1704 2.51448 4.1666C2.95148 4.16281 3.3695 3.98753 3.67851 3.67851C3.98752 3.3695 4.16281 2.95148 4.1666 2.51448C4.1704 2.07749 4.00241 1.65648 3.69881 1.34215Z" stroke="#55B8D0" stroke-width="1.5" stroke-linecap="round" stroke-linejoin="round"/>
</svg>
