<svg width="36" height="36" viewBox="0 0 36 36" fill="none" xmlns="http://www.w3.org/2000/svg">
<path d="M12.9193 3.23706C14.243 2.89961 15.6331 2.92489 16.9436 3.31025C18.254 3.69561 19.4365 4.42682 20.3668 5.42706C21.3381 4.94933 22.4215 4.74608 23.4999 4.83928C24.5783 4.93248 25.6107 5.31857 26.4857 5.95586C27.3606 6.59314 28.0448 7.45739 28.4643 8.45522C28.8837 9.45306 29.0226 10.5465 28.8658 11.6176C30.0446 12.4101 30.9377 13.5603 31.4135 14.8987C31.8893 16.2371 31.9227 17.6929 31.5087 19.0517C31.0948 20.4105 30.2554 21.6004 29.1142 22.4462C27.9729 23.292 26.5903 23.7488 25.1698 23.7496H24.7468V27.3736C24.7468 27.9946 25.2508 28.4986 25.8718 28.4986H26.6068C26.9503 28.0441 27.4948 27.7486 28.1068 27.7486H28.1218C28.6191 27.7486 29.096 27.9461 29.4477 28.2977C29.7993 28.6494 29.9968 29.1263 29.9968 29.6236C29.9968 30.1208 29.7993 30.5978 29.4477 30.9494C29.096 31.301 28.6191 31.4986 28.1218 31.4986H28.1068C27.4933 31.4986 26.9488 31.2046 26.6068 30.7486H25.8718C24.9767 30.7486 24.1183 30.393 23.4853 29.76C22.8524 29.1271 22.4968 28.2687 22.4968 27.3736V23.7496H19.1218V29.6131C19.44 29.8471 19.6762 30.1756 19.7966 30.5517C19.9171 30.9278 19.9157 31.3324 19.7926 31.7077C19.6696 32.083 19.4312 32.4099 19.1114 32.6417C18.7916 32.8735 18.4068 32.9984 18.0118 32.9986H17.9968C17.6033 32.9986 17.2197 32.8747 16.9005 32.6446C16.5812 32.4145 16.3425 32.0898 16.218 31.7165C16.0936 31.3432 16.0898 30.9401 16.2071 30.5645C16.3245 30.1889 16.557 29.8597 16.8718 29.6236V23.7496H13.4968V27.3736C13.4968 28.2687 13.1412 29.1271 12.5083 29.76C11.8754 30.393 11.0169 30.7486 10.1218 30.7486H9.38683C9.04633 31.2046 8.50183 31.4986 7.88683 31.4986H7.87183C7.37455 31.4986 6.89763 31.301 6.546 30.9494C6.19437 30.5978 5.99683 30.1208 5.99683 29.6236C5.99683 29.1263 6.19437 28.6494 6.546 28.2977C6.89763 27.9461 7.37455 27.7486 7.87183 27.7486H7.88683C8.50183 27.7486 9.04483 28.0441 9.38683 28.4986H10.1218C10.4202 28.4986 10.7063 28.38 10.9173 28.1691C11.1283 27.9581 11.2468 27.6719 11.2468 27.3736V23.7496H10.8238C9.39232 23.7485 7.99959 23.2841 6.85387 22.4259C5.70816 21.5677 4.87098 20.3617 4.46752 18.9882C4.06405 17.6147 4.11596 16.1476 4.61548 14.806C5.11501 13.4645 6.03532 12.3207 7.23883 11.5456C7.01229 9.7064 7.46423 7.84775 8.50996 6.31795C9.55569 4.78816 11.1234 3.69373 12.9193 3.23706ZM12.4273 21.4981H25.1713C26.1606 21.497 27.1204 21.1611 27.8944 20.545C28.6684 19.9289 29.211 19.069 29.434 18.1052C29.6569 17.1414 29.547 16.1305 29.1222 15.2371C28.6974 14.3437 27.9826 13.6204 27.0943 13.1851C26.8534 13.0672 26.6626 12.8672 26.5561 12.621C26.4497 12.3749 26.4347 12.0988 26.5138 11.8426C26.7427 11.099 26.7307 10.3021 26.4795 9.5658C26.2284 8.82947 25.7509 8.19137 25.1153 7.74266C24.4798 7.29395 23.7187 7.0576 22.9408 7.06737C22.1628 7.07714 21.4079 7.33253 20.7838 7.79706C20.6631 7.88683 20.5255 7.95146 20.3794 7.98713C20.2332 8.0228 20.0813 8.02878 19.9328 8.00473C19.7843 7.98067 19.6421 7.92706 19.5146 7.84708C19.3872 7.76709 19.2771 7.66235 19.1908 7.53906C18.4743 6.51567 17.423 5.77449 16.2183 5.44343C15.0136 5.11236 13.7312 5.21217 12.5923 5.72563C11.4534 6.23909 10.5294 7.13399 9.97978 8.25592C9.43018 9.37785 9.28944 10.6564 9.58183 11.8711C9.64272 12.123 9.61478 12.3882 9.50272 12.6218C9.39067 12.8555 9.20137 13.0433 8.96683 13.1536C8.06579 13.5768 7.33579 14.2943 6.8971 15.1878C6.4584 16.0814 6.33719 17.0978 6.55344 18.0695C6.76968 19.0412 7.31048 19.9103 8.08672 20.5335C8.86297 21.1567 9.82836 21.4969 10.8238 21.4981H12.4273Z" fill="#3ECB90"/>
</svg>
