<svg width="36" height="36" viewBox="0 0 36 36" fill="none" xmlns="http://www.w3.org/2000/svg">
<g clip-path="url(#clip0_384_70)">
<path fill-rule="evenodd" clip-rule="evenodd" d="M29.8078 8.02501L31.7128 20.625V20.61C32.3128 24.585 32.6278 28.665 32.6278 32.7C32.6278 33.195 32.3128 33.63 31.8328 33.78L24.3328 36.03C24.1567 36.0763 23.973 36.0865 23.7928 36.06L4.29281 32.31C4.01993 32.2623 3.77476 32.1143 3.60545 31.895C3.43615 31.6757 3.35495 31.4011 3.37781 31.125L4.90781 11.64C4.95281 11.175 5.26781 10.785 5.71781 10.65L9.51281 9.54001C9.55781 9.18001 9.61781 8.82001 9.67781 8.49001C10.6678 3.67501 13.7428 0.345014 16.7428 0.930014C17.7328 1.11001 18.5728 1.71001 19.2178 2.58001H19.3528C19.5373 2.57701 19.7278 2.57551 19.9078 2.61001C21.2578 2.86501 22.3678 3.94501 23.0428 5.59501L23.7028 5.40001H23.7328C23.8828 5.35501 24.0328 5.34001 24.1828 5.37001C24.2128 5.38501 24.2278 5.38501 24.2578 5.38501C24.3928 5.41501 24.5428 5.47501 24.6628 5.56501H24.6778L26.6278 7.06501H28.6978C29.2528 7.06501 29.7328 7.47001 29.8078 8.02501ZM20.5378 6.30001L20.8528 6.21001C20.7178 5.91001 20.5678 5.67001 20.4028 5.46001L20.4448 5.70001C20.4808 5.89651 20.5168 6.09901 20.5378 6.30001ZM18.0403 5.25751C17.3968 5.70751 16.7563 6.48601 16.2028 7.57651L18.3478 6.94651C18.2994 6.375 18.1964 5.80943 18.0403 5.25751ZM16.8328 3.36151C16.6727 3.24262 16.4883 3.16065 16.2928 3.12151H16.3078C14.8378 2.83651 12.6628 5.11651 11.8828 8.83651L13.4578 8.37151C14.2078 6.10651 15.4378 4.32151 16.8328 3.36151ZM22.8778 7.96651L7.06781 12.585L5.70281 30.3L22.8778 33.6V7.96651ZM25.1278 33.447V8.74501L25.5628 9.07501C25.7578 9.22501 25.9978 9.31501 26.2528 9.31501H27.7228L29.4778 20.955C30.0178 24.555 30.3178 28.23 30.3628 31.875L25.1278 33.447ZM13.7893 13.14C15.9643 12.165 18.7993 13.215 19.6243 13.56V13.59C20.1943 13.83 20.4643 14.49 20.2243 15.06C20.1085 15.3341 19.8887 15.5511 19.6132 15.6636C19.3377 15.776 19.0289 15.7747 18.7543 15.66C17.5543 15.165 15.7693 14.745 14.7043 15.225C14.2843 15.42 13.9993 15.75 13.8193 16.26C13.3543 17.61 14.7643 19.065 16.0243 20.055C19.5793 22.86 19.0243 25.545 18.1393 26.685C17.3743 27.69 16.2643 28.32 14.9443 28.47C14.7043 28.515 14.4793 28.515 14.2393 28.515C12.2443 28.515 10.3543 27.57 9.48431 26.865C9.25378 26.6746 9.1073 26.4012 9.07644 26.1038C9.04557 25.8064 9.1328 25.5087 9.31931 25.275C9.50974 25.0445 9.78313 24.898 10.0805 24.8671C10.378 24.8363 10.6756 24.9235 10.9093 25.11C11.5843 25.65 13.2643 26.4 14.6893 26.22C15.4093 26.13 15.9643 25.83 16.3693 25.29C16.7143 24.825 16.8193 23.505 14.6443 21.795C11.3143 19.2 11.1943 16.95 11.6893 15.51C12.0643 14.4 12.7843 13.59 13.7893 13.14Z" fill="#F0C638"/>
</g>
<defs>
<clipPath id="clip0_384_70">
<rect width="36" height="36" fill="white"/>
</clipPath>
</defs>
</svg>
