<svg width="24" height="24" viewBox="0 0 24 24" fill="none" xmlns="http://www.w3.org/2000/svg">
<path d="M10 2C15.523 2 20 6.477 20 12C20 17.523 15.523 22 10 22C4.477 22 0 17.523 0 12C0 6.477 4.477 2 10 2ZM10 6C9.73478 6 9.48043 6.10536 9.29289 6.29289C9.10536 6.48043 9 6.73478 9 7V12C9.00006 12.2652 9.10545 12.5195 9.293 12.707L12.293 15.707C12.4816 15.8892 12.7342 15.99 12.9964 15.9877C13.2586 15.9854 13.5094 15.8802 13.6948 15.6948C13.8802 15.5094 13.9854 15.2586 13.9877 14.9964C13.99 14.7342 13.8892 14.4816 13.707 14.293L11 11.586V7C11 6.73478 10.8946 6.48043 10.7071 6.29289C10.5196 6.10536 10.2652 6 10 6Z" fill="#F5747E"/>
</svg>
