<svg width="36" height="37" viewBox="0 0 36 37" fill="none" xmlns="http://www.w3.org/2000/svg">
<path fill-rule="evenodd" clip-rule="evenodd" d="M28.7395 1.67238C28.2355 -0.564731 25.0676 -0.554446 24.5841 1.68524L24.5327 1.93466L25.7875 2.20466L24.5327 1.93724C24.2566 3.26441 23.5908 4.47906 22.6207 5.42586C21.6505 6.37267 20.42 7.00859 19.0865 7.25231C16.7825 7.66116 16.7825 10.9885 19.0865 11.3974C20.4193 11.6408 21.6493 12.2759 22.6194 13.2217C23.5895 14.1676 24.2556 15.3811 24.5327 16.7073L24.5841 16.9567C25.0676 19.1939 28.2355 19.2119 28.7395 16.9747L28.8038 16.6842C29.0925 15.3627 29.7651 14.1559 30.7373 13.2153C31.7094 12.2748 32.9377 11.6423 34.268 11.3974C36.5771 10.9885 36.5771 7.65602 34.268 7.24716C32.9382 7.00177 31.7104 6.36912 30.7388 5.42858C29.7671 4.48805 29.0949 3.28153 28.8064 1.96038L28.7395 1.67238ZM14.1288 8.60743C11.6654 7.01574 9.24834 5.87918 7.12437 5.4009C5.07497 4.93805 2.85071 5.00234 1.35416 6.50146C0.240745 7.6123 -0.0755361 9.13971 0.0144627 10.6388C0.104461 12.1405 0.605883 13.8094 1.38502 15.5219C2.11272 17.1239 3.11556 18.8339 4.34983 20.5747C3.11556 22.3155 2.11272 24.0255 1.38502 25.6275C0.605883 27.34 0.104461 29.0089 0.0144627 30.5131C-0.0755361 32.0097 0.240745 33.5371 1.35159 34.6479L2.49071 33.5114L1.35416 34.6479C2.465 35.7614 3.99241 36.0776 5.49153 35.9876C6.99323 35.8976 8.66206 35.3962 10.3746 34.6171C12.1501 33.7906 13.8428 32.797 15.43 31.6497C17.1708 32.884 18.8808 33.8868 20.4828 34.6145C22.1953 35.3936 23.8641 35.8951 25.3658 35.9851C26.865 36.0751 28.3924 35.7588 29.5058 34.6479C31.0615 33.0871 31.0718 30.7497 30.5395 28.6103C29.9866 26.3835 28.7318 23.8404 26.9858 21.2613C26.7471 20.908 26.3779 20.664 25.9593 20.583C25.5407 20.502 25.1071 20.5906 24.7538 20.8293C24.4006 21.068 24.1566 21.4372 24.0756 21.8558C23.9946 22.2744 24.0832 22.708 24.3218 23.0612C25.947 25.4603 26.9884 27.6512 27.4204 29.3869C27.8729 31.2048 27.5541 32.0483 27.2301 32.3723C27.0038 32.6037 26.5307 32.8351 25.5587 32.7785C24.5893 32.7194 23.3216 32.3723 21.8122 31.6883C20.655 31.1611 19.4028 30.454 18.1042 29.59C19.8583 28.131 21.508 26.5508 23.0413 24.8612C23.1835 24.705 23.2935 24.5224 23.365 24.3237C23.4366 24.125 23.4684 23.9142 23.4584 23.7032C23.4485 23.4922 23.3972 23.2853 23.3073 23.0942C23.2174 22.9031 23.0908 22.7315 22.9346 22.5894C22.7784 22.4472 22.5958 22.3372 22.3971 22.2656C22.1984 22.1941 21.9875 22.1623 21.7766 22.1722C21.5656 22.1821 21.3587 22.2335 21.1676 22.3234C20.9765 22.4133 20.8049 22.5399 20.6628 22.6961C19.046 24.4695 17.2967 26.1174 15.43 27.6255C14.1957 26.6355 12.946 25.5169 11.7143 24.2878C10.5357 23.1102 9.4215 21.8699 8.37663 20.5721C10.0038 18.5505 11.7981 16.6693 13.7406 14.9485C14.0594 14.6655 14.2527 14.2674 14.278 13.8418C14.3034 13.4163 14.1586 12.9981 13.8756 12.6792C13.5925 12.3604 13.1945 12.1671 12.7689 12.1418C12.3433 12.1164 11.9251 12.2612 11.6063 12.5442C9.74504 14.198 8.00888 15.9875 6.41209 17.8979C5.61517 16.7197 4.91353 15.4797 4.31383 14.1899C3.62984 12.6831 3.2827 11.4128 3.22356 10.4434C3.16699 9.47142 3.40099 8.99828 3.62727 8.772C3.93584 8.46343 4.72526 8.15229 6.41723 8.53286C8.03978 8.90057 10.0995 9.83141 12.3803 11.31C12.7383 11.5418 13.1738 11.622 13.5909 11.5328C14.0081 11.4436 14.3727 11.1923 14.6046 10.8343C14.8364 10.4762 14.9166 10.0407 14.8274 9.62361C14.7381 9.20648 14.4869 8.84187 14.1288 8.61M6.41209 23.2464C5.54553 24.5449 4.84097 25.7972 4.31383 26.9543C3.62984 28.4612 3.2827 29.7314 3.22356 30.7008C3.16699 31.6728 3.40099 32.146 3.62727 32.3723C3.8587 32.6037 4.32926 32.8351 5.29868 32.7785C6.27066 32.7194 7.54093 32.3723 9.04777 31.6883C10.2049 31.1611 11.4572 30.4566 12.7557 29.59C10.454 27.6713 8.33078 25.5481 6.41209 23.2464ZM12.2157 20.5721C12.2157 19.7197 12.5544 18.9021 13.1572 18.2993C13.7599 17.6965 14.5775 17.3579 15.43 17.3579C16.2824 17.3579 17.1 17.6965 17.7028 18.2993C18.3056 18.9021 18.6442 19.7197 18.6442 20.5721C18.6442 21.4246 18.3056 22.2422 17.7028 22.8449C17.1 23.4477 16.2824 23.7864 15.43 23.7864C14.5775 23.7864 13.7599 23.4477 13.1572 22.8449C12.5544 22.2422 12.2157 21.4246 12.2157 20.5721Z" fill="#3ECB90"/>
</svg>
