<svg width="16" height="16" viewBox="0 0 16 16" fill="none" xmlns="http://www.w3.org/2000/svg">
<path d="M13.6469 1.3331H2.35354C2.22659 1.33134 2.10054 1.3546 1.98258 1.40156C1.86462 1.44851 1.75707 1.51825 1.66607 1.60678C1.57506 1.6953 1.50239 1.80089 1.4522 1.91751C1.402 2.03412 1.37527 2.15949 1.37354 2.28643V13.7131C1.37527 13.84 1.402 13.9654 1.4522 14.082C1.50239 14.1986 1.57506 14.3042 1.66607 14.3928C1.75707 14.4813 1.86462 14.551 1.98258 14.598C2.10054 14.6449 2.22659 14.6682 2.35354 14.6664H13.6469C13.7738 14.6682 13.8999 14.6449 14.0178 14.598C14.1358 14.551 14.2433 14.4813 14.3343 14.3928C14.4253 14.3042 14.498 14.1986 14.5482 14.082C14.5984 13.9654 14.6251 13.84 14.6269 13.7131V2.28643C14.6251 2.15949 14.5984 2.03412 14.5482 1.91751C14.498 1.80089 14.4253 1.6953 14.3343 1.60678C14.2433 1.51825 14.1358 1.44851 14.0178 1.40156C13.8999 1.3546 13.7738 1.33134 13.6469 1.3331ZM5.39354 12.4931H3.39354V6.4931H5.39354V12.4931ZM4.39354 5.6531C4.11771 5.6531 3.85318 5.54353 3.65814 5.34849C3.46311 5.15345 3.35354 4.88893 3.35354 4.6131C3.35354 4.33728 3.46311 4.07275 3.65814 3.87771C3.85318 3.68267 4.11771 3.5731 4.39354 3.5731C4.54 3.55649 4.68832 3.571 4.82879 3.61569C4.96925 3.66038 5.09869 3.73423 5.20864 3.83241C5.31859 3.93059 5.40655 4.05089 5.46678 4.18542C5.52701 4.31996 5.55815 4.4657 5.55815 4.6131C5.55815 4.7605 5.52701 4.90624 5.46678 5.04078C5.40655 5.17532 5.31859 5.29561 5.20864 5.39379C5.09869 5.49197 4.96925 5.56583 4.82879 5.61051C4.68832 5.6552 4.54 5.66971 4.39354 5.6531ZM12.6069 12.4931H10.6069V9.2731C10.6069 8.46643 10.3202 7.93977 9.59354 7.93977C9.36864 7.94141 9.14966 8.01195 8.96609 8.14188C8.78252 8.27181 8.64319 8.45488 8.56687 8.66643C8.5147 8.82313 8.49209 8.98815 8.5002 9.1531V12.4864H6.5002V6.48643H8.5002V7.3331C8.68189 7.01784 8.94614 6.75811 9.2645 6.5819C9.58285 6.40569 9.94325 6.31967 10.3069 6.3331C11.6402 6.3331 12.6069 7.1931 12.6069 9.03977V12.4931Z" fill="white"/>
</svg>
