<svg width="17" height="17" viewBox="0 0 17 17" fill="none" xmlns="http://www.w3.org/2000/svg">
<path d="M1.17264 15.7961L7.81311 9.15561M16.1752 6.20267L14.1875 12.167C14.1556 12.2624 14.1013 12.3487 14.029 12.4186C13.9567 12.4885 13.8686 12.54 13.7722 12.5687L1.58689 16.1915C1.47711 16.2241 1.36049 16.226 1.24972 16.1969C1.13895 16.1679 1.03828 16.109 0.95866 16.0267C0.879039 15.9444 0.82352 15.8418 0.798144 15.7301C0.772769 15.6184 0.77851 15.5019 0.814742 15.3933L4.77147 3.5252C4.79983 3.43999 4.84619 3.36187 4.9074 3.29616C4.96862 3.23044 5.04325 3.17867 5.12624 3.14434L10.7473 0.829991C10.8615 0.782794 10.9872 0.770491 11.1085 0.794631C11.2297 0.818771 11.3411 0.878275 11.4286 0.965638L16.0239 5.562C16.1062 5.64421 16.1639 5.74769 16.1906 5.86085C16.2173 5.974 16.212 6.09237 16.1752 6.20267Z" stroke="#55B8D0" stroke-width="1.5" stroke-linecap="round" stroke-linejoin="round"/>
</svg>
