<svg width="16" height="16" viewBox="0 0 16 16" fill="none" xmlns="http://www.w3.org/2000/svg">
<path d="M10.6667 2C11.5507 2 12.3986 2.35119 13.0237 2.97631C13.6488 3.60143 14 4.44928 14 5.33333V10.6667C14 11.5507 13.6488 12.3986 13.0237 13.0237C12.3986 13.6488 11.5507 14 10.6667 14H5.33333C4.44928 14 3.60143 13.6488 2.97631 13.0237C2.35119 12.3986 2 11.5507 2 10.6667V5.33333C2 4.44928 2.35119 3.60143 2.97631 2.97631C3.60143 2.35119 4.44928 2 5.33333 2H10.6667ZM8 5.33333C7.29276 5.33333 6.61448 5.61428 6.11438 6.11438C5.61428 6.61448 5.33333 7.29276 5.33333 8C5.33333 8.70724 5.61428 9.38552 6.11438 9.88562C6.61448 10.3857 7.29276 10.6667 8 10.6667C8.70724 10.6667 9.38552 10.3857 9.88562 9.88562C10.3857 9.38552 10.6667 8.70724 10.6667 8C10.6667 7.29276 10.3857 6.61448 9.88562 6.11438C9.38552 5.61428 8.70724 5.33333 8 5.33333ZM8 6.66667C8.35362 6.66667 8.69276 6.80714 8.94281 7.05719C9.19286 7.30724 9.33333 7.64638 9.33333 8C9.33333 8.35362 9.19286 8.69276 8.94281 8.94281C8.69276 9.19286 8.35362 9.33333 8 9.33333C7.64638 9.33333 7.30724 9.19286 7.05719 8.94281C6.80714 8.69276 6.66667 8.35362 6.66667 8C6.66667 7.64638 6.80714 7.30724 7.05719 7.05719C7.30724 6.80714 7.64638 6.66667 8 6.66667ZM11 4.33333C10.8232 4.33333 10.6536 4.40357 10.5286 4.5286C10.4036 4.65362 10.3333 4.82319 10.3333 5C10.3333 5.17681 10.4036 5.34638 10.5286 5.4714C10.6536 5.59643 10.8232 5.66667 11 5.66667C11.1768 5.66667 11.3464 5.59643 11.4714 5.4714C11.5964 5.34638 11.6667 5.17681 11.6667 5C11.6667 4.82319 11.5964 4.65362 11.4714 4.5286C11.3464 4.40357 11.1768 4.33333 11 4.33333Z" fill="white"/>
</svg>
