<svg width="8" height="8" viewBox="0 0 8 8" fill="none" xmlns="http://www.w3.org/2000/svg">
<path d="M4.10012 1.3361L6.60265 3.83864C6.79071 4.01856 6.94093 4.23423 7.04451 4.473C7.14808 4.71177 7.20291 4.96882 7.20579 5.22907C7.20867 5.48931 7.15953 5.74751 7.06126 5.98851C6.963 6.22951 6.81758 6.44845 6.63354 6.63249C6.44951 6.81652 6.23057 6.96194 5.98957 7.06021C5.74857 7.15847 5.49037 7.20761 5.23012 7.20473C4.96988 7.20186 4.71283 7.14702 4.47406 7.04345C4.23529 6.93988 4.01962 6.78965 3.8397 6.6016L1.3361 4.09906C0.982989 3.72997 0.788424 3.23729 0.794072 2.72653C0.799719 2.21576 1.00513 1.72751 1.36632 1.36632C1.72751 1.00513 2.21576 0.799719 2.72653 0.794072C3.23729 0.788424 3.73103 0.982989 4.10012 1.3361Z" fill="#55B8D0" stroke="#55B8D0" stroke-width="1.5" stroke-linecap="round" stroke-linejoin="round"/>
</svg>
