<svg width="43" height="34" viewBox="0 0 43 34" fill="none" xmlns="http://www.w3.org/2000/svg">
<g clip-path="url(#clip0_384_115)">
<path d="M6.375 14.875C8.71914 14.875 10.625 12.9691 10.625 10.625C10.625 8.28086 8.71914 6.375 6.375 6.375C4.03086 6.375 2.125 8.28086 2.125 10.625C2.125 12.9691 4.03086 14.875 6.375 14.875ZM36.125 14.875C38.4691 14.875 40.375 12.9691 40.375 10.625C40.375 8.28086 38.4691 6.375 36.125 6.375C33.7809 6.375 31.875 8.28086 31.875 10.625C31.875 12.9691 33.7809 14.875 36.125 14.875ZM38.25 17H34C32.8312 17 31.7754 17.4715 31.0051 18.2352C33.6812 19.7027 35.5805 22.3523 35.9922 25.5H40.375C41.5504 25.5 42.5 24.5504 42.5 23.375V21.25C42.5 18.9059 40.5941 17 38.25 17ZM21.25 17C25.3605 17 28.6875 13.673 28.6875 9.5625C28.6875 5.45195 25.3605 2.125 21.25 2.125C17.1395 2.125 13.8125 5.45195 13.8125 9.5625C13.8125 13.673 17.1395 17 21.25 17ZM26.35 19.125H25.7988C24.4176 19.7891 22.8836 20.1875 21.25 20.1875C19.6164 20.1875 18.0891 19.7891 16.7012 19.125H16.15C11.9266 19.125 8.5 22.5516 8.5 26.775V28.6875C8.5 30.4473 9.92773 31.875 11.6875 31.875H30.8125C32.5723 31.875 34 30.4473 34 28.6875V26.775C34 22.5516 30.5734 19.125 26.35 19.125ZM11.4949 18.2352C10.7246 17.4715 9.66875 17 8.5 17H4.25C1.90586 17 0 18.9059 0 21.25V23.375C0 24.5504 0.949609 25.5 2.125 25.5H6.50117C6.91953 22.3523 8.81875 19.7027 11.4949 18.2352Z" fill="#55B8D0"/>
</g>
<defs>
<clipPath id="clip0_384_115">
<rect width="42.5" height="34" fill="white"/>
</clipPath>
</defs>
</svg>
