<svg width="924" height="391" viewBox="0 0 924 391" fill="none" xmlns="http://www.w3.org/2000/svg">
<g clip-path="url(#clip0_384_135)">
<path d="M911.637 388.678C912.176 389.123 912.739 389.53 913.315 389.927C913.892 389.536 914.452 389.119 914.994 388.678C915.896 387.938 916.744 387.135 917.534 386.275C919.354 384.285 921.329 381.4 921.329 378.162C921.329 377.11 921.121 376.068 920.719 375.095C920.316 374.123 919.726 373.24 918.982 372.496C918.237 371.752 917.354 371.161 916.382 370.759C915.41 370.356 914.368 370.149 913.315 370.149C912.263 370.149 911.221 370.356 910.249 370.759C909.276 371.161 908.393 371.752 907.649 372.496C906.905 373.24 906.314 374.123 905.912 375.095C905.509 376.068 905.302 377.11 905.302 378.162C905.302 381.4 907.277 384.284 909.097 386.275C909.886 387.135 910.735 387.937 911.637 388.678ZM913.315 381.056C912.548 381.056 911.812 380.751 911.269 380.208C910.726 379.666 910.421 378.929 910.421 378.162C910.421 377.395 910.726 376.659 911.269 376.116C911.812 375.573 912.548 375.268 913.315 375.268C914.083 375.268 914.819 375.573 915.361 376.116C915.904 376.659 916.209 377.395 916.209 378.162C916.209 378.929 915.904 379.666 915.361 380.208C914.819 380.751 914.083 381.056 913.315 381.056Z" fill="#2A2A2A"/>
</g>
<path d="M847.529 364.745C848.069 365.19 848.632 365.597 849.208 365.994C849.785 365.602 850.345 365.185 850.886 364.745C851.788 364.004 852.637 363.201 853.426 362.342C855.246 360.352 857.221 357.467 857.221 354.228C857.221 353.176 857.014 352.134 856.611 351.162C856.209 350.19 855.618 349.306 854.874 348.562C854.13 347.818 853.247 347.228 852.274 346.825C851.302 346.422 850.26 346.215 849.208 346.215C848.155 346.215 847.113 346.422 846.141 346.825C845.169 347.228 844.286 347.818 843.541 348.562C842.797 349.306 842.207 350.19 841.804 351.162C841.402 352.134 841.194 353.176 841.194 354.228C841.194 357.467 843.169 360.351 844.989 362.342C845.779 363.201 846.627 364.004 847.529 364.745ZM849.208 357.122C848.44 357.122 847.704 356.817 847.162 356.275C846.619 355.732 846.314 354.996 846.314 354.228C846.314 353.461 846.619 352.725 847.162 352.182C847.704 351.64 848.44 351.335 849.208 351.335C849.975 351.335 850.711 351.64 851.254 352.182C851.797 352.725 852.102 353.461 852.102 354.228C852.102 354.996 851.797 355.732 851.254 356.275C850.711 356.817 849.975 357.122 849.208 357.122Z" fill="#2A2A2A"/>
<g clip-path="url(#clip1_384_135)">
<path d="M747.522 236.53C748.062 236.976 748.624 237.383 749.201 237.78C749.778 237.388 750.338 236.971 750.879 236.53C751.781 235.79 752.63 234.987 753.419 234.127C755.239 232.137 757.214 229.252 757.214 226.014C757.214 224.962 757.007 223.92 756.604 222.948C756.201 221.975 755.611 221.092 754.867 220.348C754.123 219.604 753.239 219.013 752.267 218.611C751.295 218.208 750.253 218.001 749.201 218.001C748.148 218.001 747.106 218.208 746.134 218.611C745.162 219.013 744.278 219.604 743.534 220.348C742.79 221.092 742.2 221.975 741.797 222.948C741.394 223.92 741.187 224.962 741.187 226.014C741.187 229.252 743.162 232.136 744.982 234.127C745.771 234.987 746.62 235.79 747.522 236.53ZM749.201 228.908C748.433 228.908 747.697 228.603 747.154 228.06C746.612 227.518 746.307 226.782 746.307 226.014C746.307 225.247 746.612 224.511 747.154 223.968C747.697 223.425 748.433 223.12 749.201 223.12C749.968 223.12 750.704 223.425 751.247 223.968C751.789 224.511 752.094 225.247 752.094 226.014C752.094 226.782 751.789 227.518 751.247 228.06C750.704 228.603 749.968 228.908 749.201 228.908Z" fill="#2A2A2A"/>
</g>
<path d="M719.315 262.173C719.855 262.619 720.417 263.025 720.993 263.423C721.571 263.031 722.131 262.614 722.672 262.173C723.574 261.433 724.423 260.63 725.212 259.77C727.032 257.78 729.007 254.895 729.007 251.657C729.007 250.605 728.8 249.563 728.397 248.59C727.994 247.618 727.404 246.735 726.66 245.991C725.916 245.247 725.032 244.656 724.06 244.254C723.088 243.851 722.046 243.644 720.993 243.644C719.941 243.644 718.899 243.851 717.927 244.254C716.955 244.656 716.071 245.247 715.327 245.991C714.583 246.735 713.993 247.618 713.59 248.59C713.187 249.563 712.98 250.605 712.98 251.657C712.98 254.895 714.955 257.779 716.775 259.77C717.564 260.63 718.413 261.432 719.315 262.173ZM720.993 254.551C720.226 254.551 719.49 254.246 718.947 253.703C718.405 253.161 718.1 252.425 718.1 251.657C718.1 250.89 718.405 250.154 718.947 249.611C719.49 249.068 720.226 248.763 720.993 248.763C721.761 248.763 722.497 249.068 723.04 249.611C723.582 250.154 723.887 250.89 723.887 251.657C723.887 252.425 723.582 253.161 723.04 253.703C722.497 254.246 721.761 254.551 720.993 254.551Z" fill="#2A2A2A"/>
<g clip-path="url(#clip2_384_135)">
<path d="M779.148 202.34C779.688 202.785 780.251 203.192 780.827 203.589C781.404 203.197 781.964 202.78 782.505 202.34C783.407 201.599 784.256 200.796 785.045 199.937C786.865 197.947 788.84 195.062 788.84 191.823C788.84 190.771 788.633 189.729 788.23 188.757C787.828 187.785 787.237 186.901 786.493 186.157C785.749 185.413 784.866 184.823 783.893 184.42C782.921 184.017 781.879 183.81 780.827 183.81C779.775 183.81 778.732 184.017 777.76 184.42C776.788 184.823 775.905 185.413 775.161 186.157C774.416 186.901 773.826 187.785 773.423 188.757C773.021 189.729 772.813 190.771 772.813 191.823C772.813 195.062 774.788 197.946 776.608 199.937C777.398 200.796 778.247 201.599 779.148 202.34ZM780.827 194.717C780.059 194.717 779.323 194.412 778.781 193.87C778.238 193.327 777.933 192.591 777.933 191.823C777.933 191.056 778.238 190.32 778.781 189.777C779.323 189.235 780.059 188.93 780.827 188.93C781.594 188.93 782.33 189.235 782.873 189.777C783.416 190.32 783.721 191.056 783.721 191.823C783.721 192.591 783.416 193.327 782.873 193.87C782.33 194.412 781.594 194.717 780.827 194.717Z" fill="#2A2A2A"/>
</g>
<path d="M631.274 167.294C631.814 167.74 632.376 168.147 632.953 168.544C633.53 168.152 634.09 167.735 634.631 167.294C635.533 166.554 636.382 165.751 637.171 164.891C638.991 162.901 640.966 160.016 640.966 156.778C640.966 155.726 640.759 154.684 640.356 153.712C639.953 152.739 639.363 151.856 638.619 151.112C637.875 150.368 636.991 149.777 636.019 149.375C635.047 148.972 634.005 148.765 632.953 148.765C631.9 148.765 630.858 148.972 629.886 149.375C628.914 149.777 628.03 150.368 627.286 151.112C626.542 151.856 625.952 152.739 625.549 153.712C625.146 154.684 624.939 155.726 624.939 156.778C624.939 160.016 626.914 162.9 628.734 164.891C629.523 165.751 630.372 166.554 631.274 167.294ZM632.953 159.672C632.185 159.672 631.449 159.367 630.906 158.824C630.364 158.282 630.059 157.546 630.059 156.778C630.059 156.011 630.364 155.275 630.906 154.732C631.449 154.189 632.185 153.884 632.953 153.884C633.72 153.884 634.456 154.189 634.999 154.732C635.541 155.275 635.846 156.011 635.846 156.778C635.846 157.546 635.541 158.282 634.999 158.824C634.456 159.367 633.72 159.672 632.953 159.672Z" fill="#2A2A2A"/>
<g clip-path="url(#clip3_384_135)">
<path d="M479.126 347.65C479.666 348.095 480.229 348.502 480.805 348.899C481.382 348.507 481.942 348.09 482.483 347.65C483.385 346.909 484.234 346.106 485.023 345.246C486.843 343.256 488.818 340.372 488.818 337.133C488.818 336.081 488.611 335.039 488.208 334.067C487.805 333.095 487.215 332.211 486.471 331.467C485.727 330.723 484.844 330.133 483.871 329.73C482.899 329.327 481.857 329.12 480.805 329.12C479.752 329.12 478.71 329.327 477.738 329.73C476.766 330.133 475.882 330.723 475.138 331.467C474.394 332.211 473.804 333.095 473.401 334.067C472.999 335.039 472.791 336.081 472.791 337.133C472.791 340.372 474.766 343.256 476.586 345.246C477.376 346.106 478.224 346.909 479.126 347.65ZM480.805 340.027C480.037 340.027 479.301 339.722 478.759 339.18C478.216 338.637 477.911 337.901 477.911 337.133C477.911 336.366 478.216 335.63 478.759 335.087C479.301 334.544 480.037 334.24 480.805 334.24C481.572 334.24 482.308 334.544 482.851 335.087C483.394 335.63 483.698 336.366 483.698 337.133C483.698 337.901 483.394 338.637 482.851 339.18C482.308 339.722 481.572 340.027 480.805 340.027Z" fill="#2A2A2A"/>
</g>
<path d="M556.91 157.892C557.45 158.337 558.012 158.744 558.588 159.141C559.166 158.749 559.726 158.332 560.267 157.892C561.169 157.151 562.018 156.348 562.807 155.489C564.627 153.499 566.602 150.614 566.602 147.376C566.602 146.323 566.395 145.281 565.992 144.309C565.589 143.337 564.999 142.453 564.255 141.709C563.511 140.965 562.627 140.375 561.655 139.972C560.683 139.569 559.641 139.362 558.588 139.362C557.536 139.362 556.494 139.569 555.522 139.972C554.55 140.375 553.666 140.965 552.922 141.709C552.178 142.453 551.588 143.337 551.185 144.309C550.782 145.281 550.575 146.323 550.575 147.376C550.575 150.614 552.55 153.498 554.37 155.489C555.159 156.349 556.008 157.151 556.91 157.892ZM558.588 150.269C557.821 150.269 557.085 149.964 556.542 149.422C556 148.879 555.695 148.143 555.695 147.376C555.695 146.608 556 145.872 556.542 145.329C557.085 144.787 557.821 144.482 558.588 144.482C559.356 144.482 560.092 144.787 560.635 145.329C561.177 145.872 561.482 146.608 561.482 147.376C561.482 148.143 561.177 148.879 560.635 149.422C560.092 149.964 559.356 150.269 558.588 150.269Z" fill="#2A2A2A"/>
<path d="M540.669 151.908C541.209 152.354 541.772 152.761 542.348 153.158C542.925 152.766 543.485 152.349 544.026 151.908C544.928 151.168 545.777 150.365 546.566 149.505C548.386 147.515 550.361 144.631 550.361 141.392C550.361 140.34 550.154 139.298 549.751 138.326C549.348 137.353 548.758 136.47 548.014 135.726C547.27 134.982 546.387 134.391 545.414 133.989C544.442 133.586 543.4 133.379 542.348 133.379C541.295 133.379 540.253 133.586 539.281 133.989C538.309 134.391 537.425 134.982 536.681 135.726C535.937 136.47 535.347 137.353 534.944 138.326C534.542 139.298 534.334 140.34 534.334 141.392C534.334 144.631 536.309 147.514 538.129 149.505C538.918 150.365 539.767 151.168 540.669 151.908ZM542.348 144.286C541.58 144.286 540.844 143.981 540.302 143.438C539.759 142.896 539.454 142.16 539.454 141.392C539.454 140.625 539.759 139.889 540.302 139.346C540.844 138.803 541.58 138.498 542.348 138.498C543.115 138.498 543.851 138.803 544.394 139.346C544.937 139.889 545.241 140.625 545.241 141.392C545.241 142.16 544.937 142.896 544.394 143.438C543.851 143.981 543.115 144.286 542.348 144.286Z" fill="#2A2A2A"/>
<path d="M483.4 129.685C483.939 130.13 484.502 130.537 485.078 130.934C485.656 130.542 486.216 130.125 486.757 129.685C487.659 128.944 488.507 128.141 489.297 127.282C491.117 125.292 493.092 122.407 493.092 119.169C493.092 118.116 492.884 117.074 492.482 116.102C492.079 115.13 491.489 114.246 490.745 113.502C490 112.758 489.117 112.168 488.145 111.765C487.173 111.362 486.131 111.155 485.078 111.155C484.026 111.155 482.984 111.362 482.012 111.765C481.039 112.168 480.156 112.758 479.412 113.502C478.668 114.246 478.078 115.13 477.675 116.102C477.272 117.074 477.065 118.116 477.065 119.169C477.065 122.407 479.04 125.291 480.86 127.282C481.649 128.141 482.498 128.944 483.4 129.685ZM485.078 122.062C484.311 122.062 483.575 121.757 483.032 121.215C482.489 120.672 482.185 119.936 482.185 119.169C482.185 118.401 482.489 117.665 483.032 117.122C483.575 116.58 484.311 116.275 485.078 116.275C485.846 116.275 486.582 116.58 487.124 117.122C487.667 117.665 487.972 118.401 487.972 119.169C487.972 119.936 487.667 120.672 487.124 121.215C486.582 121.757 485.846 122.062 485.078 122.062Z" fill="#2A2A2A"/>
<path d="M379.119 92.9299C379.659 93.3751 380.221 93.782 380.797 94.1791C381.375 93.7873 381.935 93.3705 382.476 92.9299C383.378 92.1893 384.227 91.3863 385.016 90.5268C386.836 88.5368 388.811 85.6519 388.811 82.4136C388.811 81.3613 388.604 80.3193 388.201 79.347C387.798 78.3748 387.208 77.4914 386.464 76.7473C385.72 76.0032 384.836 75.4129 383.864 75.0102C382.892 74.6075 381.85 74.4002 380.797 74.4002C379.745 74.4002 378.703 74.6075 377.731 75.0102C376.759 75.4129 375.875 76.0032 375.131 76.7473C374.387 77.4914 373.797 78.3748 373.394 79.347C372.991 80.3193 372.784 81.3613 372.784 82.4136C372.784 85.6519 374.759 88.5359 376.579 90.5268C377.368 91.3866 378.217 92.189 379.119 92.9299ZM380.797 85.3074C380.03 85.3074 379.294 85.0025 378.751 84.4598C378.209 83.9171 377.904 83.1811 377.904 82.4136C377.904 81.6462 378.209 80.9101 378.751 80.3675C379.294 79.8248 380.03 79.5199 380.797 79.5199C381.565 79.5199 382.301 79.8248 382.844 80.3675C383.386 80.9101 383.691 81.6462 383.691 82.4136C383.691 83.1811 383.386 83.9171 382.844 84.4598C382.301 85.0025 381.565 85.3074 380.797 85.3074Z" fill="#2A2A2A"/>
<g clip-path="url(#clip4_384_135)">
<path d="M449.21 95.4941C449.749 95.9393 450.312 96.3462 450.888 96.7433C451.465 96.3514 452.025 95.9346 452.566 95.4941C453.468 94.7535 454.317 93.9504 455.107 93.0909C456.927 91.1009 458.901 88.2161 458.901 84.9778C458.901 83.9255 458.694 82.8834 458.291 81.9112C457.889 80.939 457.298 80.0556 456.554 79.3115C455.81 78.5673 454.927 77.9771 453.955 77.5744C452.982 77.1717 451.94 76.9644 450.888 76.9644C449.836 76.9644 448.794 77.1717 447.821 77.5744C446.849 77.9771 445.966 78.5673 445.222 79.3115C444.478 80.0556 443.887 80.939 443.485 81.9112C443.082 82.8834 442.875 83.9255 442.875 84.9778C442.875 88.2161 444.849 91.1 446.669 93.0909C447.459 93.9508 448.308 94.7532 449.21 95.4941ZM450.888 87.8715C450.121 87.8715 449.385 87.5667 448.842 87.024C448.299 86.4813 447.994 85.7453 447.994 84.9778C447.994 84.2103 448.299 83.4743 448.842 82.9316C449.385 82.3889 450.121 82.0841 450.888 82.0841C451.655 82.0841 452.392 82.3889 452.934 82.9316C453.477 83.4743 453.782 84.2103 453.782 84.9778C453.782 85.7453 453.477 86.4813 452.934 87.024C452.392 87.5667 451.655 87.8715 450.888 87.8715Z" fill="#2A2A2A"/>
</g>
<g clip-path="url(#clip5_384_135)">
<path d="M455.193 72.4156C455.732 72.8608 456.295 73.2677 456.871 73.6648C457.448 73.2729 458.008 72.8561 458.55 72.4156C459.451 71.675 460.3 70.872 461.09 70.0124C462.91 68.0224 464.885 65.1376 464.885 61.8993C464.885 60.847 464.677 59.8049 464.275 58.8327C463.872 57.8605 463.282 56.9771 462.538 56.233C461.793 55.4888 460.91 54.8986 459.938 54.4959C458.966 54.0932 457.924 53.8859 456.871 53.8859C455.819 53.8859 454.777 54.0932 453.805 54.4959C452.832 54.8986 451.949 55.4888 451.205 56.233C450.461 56.9771 449.87 57.8605 449.468 58.8327C449.065 59.8049 448.858 60.847 448.858 61.8993C448.858 65.1376 450.833 68.0216 452.653 70.0124C453.442 70.8723 454.291 71.6747 455.193 72.4156ZM456.871 64.793C456.104 64.793 455.368 64.4882 454.825 63.9455C454.282 63.4028 453.977 62.6668 453.977 61.8993C453.977 61.1318 454.282 60.3958 454.825 59.8531C455.368 59.3104 456.104 59.0056 456.871 59.0056C457.639 59.0056 458.375 59.3104 458.917 59.8531C459.46 60.3958 459.765 61.1318 459.765 61.8993C459.765 62.6668 459.46 63.4028 458.917 63.9455C458.375 64.4882 457.639 64.793 456.871 64.793Z" fill="#2A2A2A"/>
</g>
<g clip-path="url(#clip6_384_135)">
<path d="M430.404 84.3823C430.944 84.8275 431.507 85.2344 432.083 85.6315C432.66 85.2397 433.22 84.8229 433.761 84.3823C434.663 83.6417 435.512 82.8387 436.301 81.9792C438.121 79.9892 440.096 77.1044 440.096 73.8661C440.096 72.8137 439.889 71.7717 439.486 70.7995C439.084 69.8272 438.493 68.9438 437.749 68.1997C437.005 67.4556 436.122 66.8654 435.149 66.4626C434.177 66.0599 433.135 65.8527 432.083 65.8527C431.03 65.8527 429.988 66.0599 429.016 66.4626C428.044 66.8654 427.161 67.4556 426.416 68.1997C425.672 68.9438 425.082 69.8272 424.679 70.7995C424.277 71.7717 424.069 72.8137 424.069 73.8661C424.069 77.1044 426.044 79.9883 427.864 81.9792C428.654 82.839 429.502 83.6415 430.404 84.3823ZM432.083 76.7598C431.315 76.7598 430.579 76.4549 430.037 75.9123C429.494 75.3696 429.189 74.6335 429.189 73.8661C429.189 73.0986 429.494 72.3626 430.037 71.8199C430.579 71.2772 431.315 70.9723 432.083 70.9723C432.85 70.9723 433.586 71.2772 434.129 71.8199C434.672 72.3626 434.977 73.0986 434.977 73.8661C434.977 74.6335 434.672 75.3696 434.129 75.9123C433.586 76.4549 432.85 76.7598 432.083 76.7598Z" fill="#2A2A2A"/>
</g>
<g clip-path="url(#clip7_384_135)">
<path d="M403.052 83.5273C403.592 83.9725 404.154 84.3794 404.731 84.7765C405.308 84.3847 405.868 83.9679 406.409 83.5273C407.311 82.7867 408.16 81.9837 408.949 81.1242C410.769 79.1342 412.744 76.2493 412.744 73.011C412.744 71.9587 412.537 70.9167 412.134 69.9444C411.731 68.9722 411.141 68.0888 410.397 67.3447C409.653 66.6006 408.769 66.0103 407.797 65.6076C406.825 65.2049 405.783 64.9976 404.731 64.9976C403.678 64.9976 402.636 65.2049 401.664 65.6076C400.692 66.0103 399.808 66.6006 399.064 67.3447C398.32 68.0888 397.73 68.9722 397.327 69.9444C396.924 70.9167 396.717 71.9587 396.717 73.011C396.717 76.2493 398.692 79.1333 400.512 81.1242C401.301 81.984 402.15 82.7864 403.052 83.5273ZM404.731 75.9048C403.963 75.9048 403.227 75.5999 402.684 75.0572C402.142 74.5145 401.837 73.7785 401.837 73.011C401.837 72.2436 402.142 71.5075 402.684 70.9648C403.227 70.4222 403.963 70.1173 404.731 70.1173C405.498 70.1173 406.234 70.4222 406.777 70.9648C407.319 71.5075 407.624 72.2436 407.624 73.011C407.624 73.7785 407.319 74.5145 406.777 75.0572C406.234 75.5999 405.498 75.9048 404.731 75.9048Z" fill="#2A2A2A"/>
</g>
<g clip-path="url(#clip8_384_135)">
<path d="M409.89 60.4488C410.43 60.894 410.992 61.3009 411.568 61.698C412.146 61.3062 412.706 60.8894 413.247 60.4488C414.149 59.7082 414.998 58.9052 415.787 58.0457C417.607 56.0557 419.582 53.1708 419.582 49.9325C419.582 48.8802 419.375 47.8382 418.972 46.8659C418.569 45.8937 417.979 45.0103 417.235 44.2662C416.491 43.5221 415.607 42.9318 414.635 42.5291C413.663 42.1264 412.621 41.9191 411.568 41.9191C410.516 41.9191 409.474 42.1264 408.502 42.5291C407.53 42.9318 406.646 43.5221 405.902 44.2662C405.158 45.0103 404.568 45.8937 404.165 46.8659C403.762 47.8382 403.555 48.8802 403.555 49.9325C403.555 53.1708 405.53 56.0548 407.35 58.0457C408.139 58.9055 408.988 59.7079 409.89 60.4488ZM411.568 52.8263C410.801 52.8263 410.065 52.5214 409.522 51.9787C408.98 51.436 408.675 50.7 408.675 49.9325C408.675 49.1651 408.98 48.429 409.522 47.8864C410.065 47.3437 410.801 47.0388 411.568 47.0388C412.336 47.0388 413.072 47.3437 413.615 47.8864C414.157 48.429 414.462 49.1651 414.462 49.9325C414.462 50.7 414.157 51.436 413.615 51.9787C413.072 52.5214 412.336 52.8263 411.568 52.8263Z" fill="#2A2A2A"/>
</g>
<g clip-path="url(#clip9_384_135)">
<path d="M424.421 102.332C424.961 102.777 425.524 103.184 426.1 103.581C426.677 103.19 427.237 102.773 427.778 102.332C428.68 101.592 429.529 100.789 430.318 99.9291C432.138 97.9391 434.113 95.0543 434.113 91.816C434.113 90.7637 433.906 89.7216 433.503 88.7494C433.1 87.7772 432.51 86.8938 431.766 86.1496C431.022 85.4055 430.139 84.8153 429.166 84.4126C428.194 84.0098 427.152 83.8026 426.1 83.8026C425.047 83.8026 424.005 84.0098 423.033 84.4126C422.061 84.8153 421.177 85.4055 420.433 86.1496C419.689 86.8938 419.099 87.7772 418.696 88.7494C418.294 89.7216 418.086 90.7637 418.086 91.816C418.086 95.0543 420.061 97.9382 421.881 99.9291C422.67 100.789 423.519 101.591 424.421 102.332ZM426.1 94.7097C425.332 94.7097 424.596 94.4048 424.053 93.8622C423.511 93.3195 423.206 92.5835 423.206 91.816C423.206 91.0485 423.511 90.3125 424.053 89.7698C424.596 89.2271 425.332 88.9223 426.1 88.9223C426.867 88.9223 427.603 89.2271 428.146 89.7698C428.689 90.3125 428.993 91.0485 428.993 91.816C428.993 92.5835 428.689 93.3195 428.146 93.8622C427.603 94.4048 426.867 94.7097 426.1 94.7097Z" fill="#2A2A2A"/>
</g>
<g clip-path="url(#clip10_384_135)">
<path d="M435.533 60.4488C436.073 60.894 436.636 61.3009 437.212 61.698C437.789 61.3062 438.349 60.8894 438.89 60.4488C439.792 59.7082 440.641 58.9052 441.43 58.0457C443.25 56.0557 445.225 53.1708 445.225 49.9325C445.225 48.8802 445.018 47.8382 444.615 46.8659C444.212 45.8937 443.622 45.0103 442.878 44.2662C442.134 43.5221 441.25 42.9318 440.278 42.5291C439.306 42.1264 438.264 41.9191 437.212 41.9191C436.159 41.9191 435.117 42.1264 434.145 42.5291C433.173 42.9318 432.289 43.5221 431.545 44.2662C430.801 45.0103 430.211 45.8937 429.808 46.8659C429.406 47.8382 429.198 48.8802 429.198 49.9325C429.198 53.1708 431.173 56.0548 432.993 58.0457C433.782 58.9055 434.631 59.7079 435.533 60.4488ZM437.212 52.8263C436.444 52.8263 435.708 52.5214 435.165 51.9787C434.623 51.436 434.318 50.7 434.318 49.9325C434.318 49.1651 434.623 48.429 435.165 47.8864C435.708 47.3437 436.444 47.0388 437.212 47.0388C437.979 47.0388 438.715 47.3437 439.258 47.8864C439.8 48.429 440.105 49.1651 440.105 49.9325C440.105 50.7 439.8 51.436 439.258 51.9787C438.715 52.5214 437.979 52.8263 437.212 52.8263Z" fill="#2A2A2A"/>
</g>
<g clip-path="url(#clip11_384_135)">
<path d="M378.264 72.4156C378.804 72.8608 379.367 73.2677 379.943 73.6648C380.52 73.2729 381.08 72.8561 381.621 72.4156C382.523 71.675 383.372 70.872 384.161 70.0124C385.981 68.0224 387.956 65.1376 387.956 61.8993C387.956 60.847 387.749 59.8049 387.346 58.8327C386.943 57.8605 386.353 56.9771 385.609 56.233C384.865 55.4888 383.982 54.8986 383.009 54.4959C382.037 54.0932 380.995 53.8859 379.943 53.8859C378.89 53.8859 377.848 54.0932 376.876 54.4959C375.904 54.8986 375.02 55.4888 374.276 56.233C373.532 56.9771 372.942 57.8605 372.539 58.8327C372.137 59.8049 371.929 60.847 371.929 61.8993C371.929 65.1376 373.904 68.0216 375.724 70.0124C376.513 70.8723 377.362 71.6747 378.264 72.4156ZM379.943 64.793C379.175 64.793 378.439 64.4882 377.897 63.9455C377.354 63.4028 377.049 62.6668 377.049 61.8993C377.049 61.1318 377.354 60.3958 377.897 59.8531C378.439 59.3104 379.175 59.0056 379.943 59.0056C380.71 59.0056 381.446 59.3104 381.989 59.8531C382.532 60.3958 382.836 61.1318 382.836 61.8993C382.836 62.6668 382.532 63.4028 381.989 63.9455C381.446 64.4882 380.71 64.793 379.943 64.793Z" fill="#2A2A2A"/>
</g>
<g clip-path="url(#clip12_384_135)">
<path d="M375.7 49.3371C376.239 49.7823 376.802 50.1892 377.378 50.5863C377.956 50.1944 378.516 49.7776 379.057 49.3371C379.959 48.5965 380.807 47.7935 381.597 46.9339C383.417 44.9439 385.392 42.0591 385.392 38.8208C385.392 37.7685 385.184 36.7264 384.782 35.7542C384.379 34.782 383.789 33.8986 383.045 33.1545C382.3 32.4104 381.417 31.8201 380.445 31.4174C379.473 31.0147 378.431 30.8074 377.378 30.8074C376.326 30.8074 375.284 31.0147 374.312 31.4174C373.339 31.8201 372.456 32.4104 371.712 33.1545C370.968 33.8986 370.378 34.782 369.975 35.7542C369.572 36.7264 369.365 37.7685 369.365 38.8208C369.365 42.0591 371.34 44.9431 373.16 46.9339C373.949 47.7938 374.798 48.5962 375.7 49.3371ZM377.378 41.7145C376.611 41.7145 375.875 41.4097 375.332 40.867C374.789 40.3243 374.485 39.5883 374.485 38.8208C374.485 38.0533 374.789 37.3173 375.332 36.7746C375.875 36.2319 376.611 35.9271 377.378 35.9271C378.146 35.9271 378.882 36.2319 379.424 36.7746C379.967 37.3173 380.272 38.0533 380.272 38.8208C380.272 39.5883 379.967 40.3243 379.424 40.867C378.882 41.4097 378.146 41.7145 377.378 41.7145Z" fill="#2A2A2A"/>
</g>
<path d="M356.895 52.756C357.435 53.2012 357.997 53.6081 358.574 54.0053C359.151 53.6134 359.711 53.1966 360.252 52.756C361.154 52.0154 362.003 51.2124 362.792 50.3529C364.612 48.3629 366.587 45.4781 366.587 42.2398C366.587 41.1874 366.38 40.1454 365.977 39.1732C365.574 38.2009 364.984 37.3176 364.24 36.5734C363.496 35.8293 362.612 35.2391 361.64 34.8363C360.668 34.4336 359.626 34.2264 358.574 34.2264C357.521 34.2264 356.479 34.4336 355.507 34.8363C354.535 35.2391 353.651 35.8293 352.907 36.5734C352.163 37.3176 351.573 38.2009 351.17 39.1732C350.767 40.1454 350.56 41.1874 350.56 42.2398C350.56 45.4781 352.535 48.362 354.355 50.3529C355.144 51.2127 355.993 52.0152 356.895 52.756ZM358.574 45.1335C357.806 45.1335 357.07 44.8286 356.527 44.286C355.985 43.7433 355.68 43.0072 355.68 42.2398C355.68 41.4723 355.985 40.7363 356.527 40.1936C357.07 39.6509 357.806 39.346 358.574 39.346C359.341 39.346 360.077 39.6509 360.62 40.1936C361.162 40.7363 361.467 41.4723 361.467 42.2398C361.467 43.0072 361.162 43.7433 360.62 44.286C360.077 44.8286 359.341 45.1335 358.574 45.1335Z" fill="#2A2A2A"/>
<path d="M121.835 268.156C122.374 268.602 122.937 269.009 123.513 269.406C124.09 269.014 124.65 268.597 125.191 268.156C126.093 267.416 126.942 266.613 127.732 265.753C129.552 263.763 131.527 260.879 131.527 257.64C131.527 256.588 131.319 255.546 130.917 254.574C130.514 253.601 129.924 252.718 129.179 251.974C128.435 251.23 127.552 250.639 126.58 250.237C125.607 249.834 124.565 249.627 123.513 249.627C122.461 249.627 121.419 249.834 120.447 250.237C119.474 250.639 118.591 251.23 117.847 251.974C117.103 252.718 116.512 253.601 116.11 254.574C115.707 255.546 115.5 256.588 115.5 257.64C115.5 260.879 117.475 263.762 119.294 265.753C120.084 266.613 120.933 267.416 121.835 268.156ZM123.513 260.534C122.746 260.534 122.01 260.229 121.467 259.686C120.924 259.144 120.619 258.408 120.619 257.64C120.619 256.873 120.924 256.137 121.467 255.594C122.01 255.051 122.746 254.746 123.513 254.746C124.281 254.746 125.017 255.051 125.559 255.594C126.102 256.137 126.407 256.873 126.407 257.64C126.407 258.408 126.102 259.144 125.559 259.686C125.017 260.229 124.281 260.534 123.513 260.534Z" fill="#2A2A2A"/>
<path d="M136.366 228.837C136.905 229.283 137.468 229.69 138.044 230.087C138.622 229.695 139.182 229.278 139.723 228.837C140.625 228.097 141.473 227.294 142.263 226.434C144.083 224.444 146.058 221.559 146.058 218.321C146.058 217.269 145.85 216.227 145.448 215.255C145.045 214.282 144.455 213.399 143.711 212.655C142.967 211.911 142.083 211.32 141.111 210.918C140.139 210.515 139.097 210.308 138.044 210.308C136.992 210.308 135.95 210.515 134.978 210.918C134.005 211.32 133.122 211.911 132.378 212.655C131.634 213.399 131.044 214.282 130.641 215.255C130.238 216.227 130.031 217.269 130.031 218.321C130.031 221.559 132.006 224.443 133.826 226.434C134.615 227.294 135.464 228.097 136.366 228.837ZM138.044 221.215C137.277 221.215 136.541 220.91 135.998 220.367C135.455 219.825 135.151 219.089 135.151 218.321C135.151 217.554 135.455 216.818 135.998 216.275C136.541 215.732 137.277 215.427 138.044 215.427C138.812 215.427 139.548 215.732 140.09 216.275C140.633 216.818 140.938 217.554 140.938 218.321C140.938 219.089 140.633 219.825 140.09 220.367C139.548 220.91 138.812 221.215 138.044 221.215Z" fill="#2A2A2A"/>
<g clip-path="url(#clip13_384_135)">
<path d="M97.9012 200.63C98.4408 201.075 99.0035 201.482 99.5796 201.879C100.157 201.487 100.717 201.071 101.258 200.63C102.16 199.89 103.009 199.086 103.798 198.227C105.618 196.237 107.593 193.352 107.593 190.114C107.593 189.062 107.386 188.019 106.983 187.047C106.58 186.075 105.99 185.192 105.246 184.448C104.502 183.703 103.618 183.113 102.646 182.71C101.674 182.308 100.632 182.1 99.5796 182.1C98.5272 182.1 97.4852 182.308 96.513 182.71C95.5407 183.113 94.6573 183.703 93.9132 184.448C93.1691 185.192 92.5788 186.075 92.1761 187.047C91.7734 188.019 91.5662 189.062 91.5662 190.114C91.5662 193.352 93.541 196.236 95.3609 198.227C96.1504 199.087 96.9992 199.889 97.9012 200.63ZM99.5796 193.008C98.8121 193.008 98.0761 192.703 97.5334 192.16C96.9907 191.617 96.6858 190.881 96.6858 190.114C96.6858 189.346 96.9907 188.61 97.5334 188.068C98.0761 187.525 98.8121 187.22 99.5796 187.22C100.347 187.22 101.083 187.525 101.626 188.068C102.168 188.61 102.473 189.346 102.473 190.114C102.473 190.881 102.168 191.617 101.626 192.16C101.083 192.703 100.347 193.008 99.5796 193.008Z" fill="#2A2A2A"/>
</g>
<g clip-path="url(#clip14_384_135)">
<path d="M114.142 157.037C114.682 157.482 115.244 157.889 115.82 158.286C116.398 157.895 116.958 157.478 117.499 157.037C118.401 156.297 119.25 155.494 120.039 154.634C121.859 152.644 123.834 149.759 123.834 146.521C123.834 145.469 123.627 144.427 123.224 143.454C122.821 142.482 122.231 141.599 121.487 140.855C120.743 140.111 119.859 139.52 118.887 139.118C117.915 138.715 116.873 138.508 115.82 138.508C114.768 138.508 113.726 138.715 112.754 139.118C111.782 139.52 110.898 140.111 110.154 140.855C109.41 141.599 108.82 142.482 108.417 143.454C108.014 144.427 107.807 145.469 107.807 146.521C107.807 149.759 109.782 152.643 111.602 154.634C112.391 155.494 113.24 156.296 114.142 157.037ZM115.82 149.415C115.053 149.415 114.317 149.11 113.774 148.567C113.232 148.025 112.927 147.288 112.927 146.521C112.927 145.754 113.232 145.018 113.774 144.475C114.317 143.932 115.053 143.627 115.82 143.627C116.588 143.627 117.324 143.932 117.867 144.475C118.409 145.018 118.714 145.754 118.714 146.521C118.714 147.288 118.409 148.025 117.867 148.567C117.324 149.11 116.588 149.415 115.82 149.415Z" fill="#2A2A2A"/>
</g>
<path d="M87.6445 139.087C88.1841 139.532 88.7468 139.939 89.3229 140.336C89.9002 139.944 90.4602 139.528 91.0013 139.087C91.9032 138.347 92.752 137.544 93.5415 136.684C95.3614 134.694 97.3363 131.809 97.3363 128.571C97.3363 127.519 97.129 126.476 96.7263 125.504C96.3236 124.532 95.7333 123.649 94.9892 122.905C94.2451 122.16 93.3617 121.57 92.3895 121.167C91.4173 120.765 90.3752 120.557 89.3229 120.557C88.2706 120.557 87.2285 120.765 86.2563 121.167C85.2841 121.57 84.4007 122.16 83.6566 122.905C82.9124 123.649 82.3222 124.532 81.9195 125.504C81.5167 126.476 81.3095 127.519 81.3095 128.571C81.3095 131.809 83.2843 134.693 85.1043 136.684C85.8937 137.544 86.7425 138.346 87.6445 139.087ZM89.3229 131.465C88.5554 131.465 87.8194 131.16 87.2767 130.617C86.734 130.074 86.4292 129.338 86.4292 128.571C86.4292 127.803 86.734 127.067 87.2767 126.525C87.8194 125.982 88.5554 125.677 89.3229 125.677C90.0904 125.677 90.8264 125.982 91.3691 126.525C91.9117 127.067 92.2166 127.803 92.2166 128.571C92.2166 129.338 91.9117 130.074 91.3691 130.617C90.8264 131.16 90.0904 131.465 89.3229 131.465Z" fill="#2A2A2A"/>
<g clip-path="url(#clip15_384_135)">
<path d="M119.271 127.975C119.81 128.42 120.373 128.827 120.949 129.224C121.527 128.833 122.086 128.416 122.628 127.975C123.53 127.235 124.378 126.432 125.168 125.572C126.988 123.582 128.963 120.697 128.963 117.459C128.963 116.407 128.755 115.365 128.353 114.392C127.95 113.42 127.36 112.537 126.616 111.793C125.871 111.048 124.988 110.458 124.016 110.055C123.044 109.653 122.002 109.445 120.949 109.445C119.897 109.445 118.855 109.653 117.883 110.055C116.91 110.458 116.027 111.048 115.283 111.793C114.539 112.537 113.948 113.42 113.546 114.392C113.143 115.365 112.936 116.407 112.936 117.459C112.936 120.697 114.911 123.581 116.731 125.572C117.52 126.432 118.369 127.234 119.271 127.975ZM120.949 120.353C120.182 120.353 119.446 120.048 118.903 119.505C118.36 118.962 118.055 118.226 118.055 117.459C118.055 116.691 118.36 115.955 118.903 115.413C119.446 114.87 120.182 114.565 120.949 114.565C121.717 114.565 122.453 114.87 122.995 115.413C123.538 115.955 123.843 116.691 123.843 117.459C123.843 118.226 123.538 118.962 122.995 119.505C122.453 120.048 121.717 120.353 120.949 120.353Z" fill="#2A2A2A"/>
</g>
<g clip-path="url(#clip16_384_135)">
<path d="M109.013 101.477C109.553 101.923 110.115 102.33 110.692 102.727C111.269 102.335 111.829 101.918 112.37 101.477C113.272 100.737 114.121 99.9338 114.91 99.0743C116.73 97.0843 118.705 94.1995 118.705 90.9612C118.705 89.9088 118.498 88.8668 118.095 87.8946C117.692 86.9224 117.102 86.039 116.358 85.2948C115.614 84.5507 114.73 83.9605 113.758 83.5578C112.786 83.155 111.744 82.9478 110.692 82.9478C109.639 82.9478 108.597 83.155 107.625 83.5578C106.653 83.9605 105.769 84.5507 105.025 85.2948C104.281 86.039 103.691 86.9224 103.288 87.8946C102.885 88.8668 102.678 89.9088 102.678 90.9612C102.678 94.1995 104.653 97.0834 106.473 99.0743C107.262 99.9341 108.111 100.737 109.013 101.477ZM110.692 93.8549C109.924 93.8549 109.188 93.55 108.645 93.0074C108.103 92.4647 107.798 91.7286 107.798 90.9612C107.798 90.1937 108.103 89.4577 108.645 88.915C109.188 88.3723 109.924 88.0675 110.692 88.0675C111.459 88.0675 112.195 88.3723 112.738 88.915C113.28 89.4577 113.585 90.1937 113.585 90.9612C113.585 91.7286 113.28 92.4647 112.738 93.0074C112.195 93.55 111.459 93.8549 110.692 93.8549Z" fill="#2A2A2A"/>
</g>
<path d="M156.025 93.7847C156.565 94.2299 157.128 94.6368 157.704 95.0339C158.281 94.6421 158.841 94.2253 159.382 93.7847C160.284 93.0441 161.133 92.2411 161.922 91.3816C163.742 89.3916 165.717 86.5067 165.717 83.2684C165.717 82.2161 165.51 81.1741 165.107 80.2018C164.705 79.2296 164.114 78.3462 163.37 77.6021C162.626 76.858 161.743 76.2677 160.77 75.865C159.798 75.4623 158.756 75.255 157.704 75.255C156.651 75.255 155.609 75.4623 154.637 75.865C153.665 76.2677 152.782 76.858 152.037 77.6021C151.293 78.3462 150.703 79.2296 150.3 80.2018C149.898 81.1741 149.69 82.2161 149.69 83.2684C149.69 86.5067 151.665 89.3907 153.485 91.3816C154.275 92.2414 155.123 93.0438 156.025 93.7847ZM157.704 86.1622C156.936 86.1622 156.2 85.8573 155.658 85.3146C155.115 84.7719 154.81 84.0359 154.81 83.2684C154.81 82.501 155.115 81.7649 155.658 81.2223C156.2 80.6796 156.936 80.3747 157.704 80.3747C158.471 80.3747 159.207 80.6796 159.75 81.2223C160.293 81.7649 160.598 82.501 160.598 83.2684C160.598 84.0359 160.293 84.7719 159.75 85.3146C159.207 85.8573 158.471 86.1622 157.704 86.1622Z" fill="#2A2A2A"/>
<g clip-path="url(#clip17_384_135)">
<path d="M133.802 84.3823C134.341 84.8275 134.904 85.2344 135.48 85.6315C136.057 85.2397 136.617 84.8229 137.158 84.3823C138.06 83.6417 138.909 82.8387 139.699 81.9792C141.518 79.9892 143.493 77.1044 143.493 73.8661C143.493 72.8137 143.286 71.7717 142.883 70.7995C142.481 69.8272 141.89 68.9438 141.146 68.1997C140.402 67.4556 139.519 66.8654 138.546 66.4626C137.574 66.0599 136.532 65.8527 135.48 65.8527C134.428 65.8527 133.386 66.0599 132.413 66.4626C131.441 66.8654 130.558 67.4556 129.814 68.1997C129.069 68.9438 128.479 69.8272 128.076 70.7995C127.674 71.7717 127.466 72.8137 127.466 73.8661C127.466 77.1044 129.441 79.9883 131.261 81.9792C132.051 82.839 132.9 83.6415 133.802 84.3823ZM135.48 76.7598C134.712 76.7598 133.976 76.4549 133.434 75.9123C132.891 75.3696 132.586 74.6335 132.586 73.8661C132.586 73.0986 132.891 72.3626 133.434 71.8199C133.976 71.2772 134.712 70.9723 135.48 70.9723C136.247 70.9723 136.983 71.2772 137.526 71.8199C138.069 72.3626 138.374 73.0986 138.374 73.8661C138.374 74.6335 138.069 75.3696 137.526 75.9123C136.983 76.4549 136.247 76.7598 135.48 76.7598Z" fill="#2A2A2A"/>
</g>
<g clip-path="url(#clip18_384_135)">
<path d="M172.266 61.3036C172.805 61.7488 173.368 62.1557 173.944 62.5528C174.521 62.161 175.081 61.7442 175.622 61.3036C176.524 60.563 177.373 59.76 178.163 58.9005C179.983 56.9105 181.958 54.0256 181.958 50.7873C181.958 49.735 181.75 48.693 181.348 47.7207C180.945 46.7485 180.355 45.8651 179.61 45.121C178.866 44.3769 177.983 43.7866 177.011 43.3839C176.038 42.9812 174.996 42.7739 173.944 42.7739C172.892 42.7739 171.85 42.9812 170.878 43.3839C169.905 43.7866 169.022 44.3769 168.278 45.121C167.534 45.8651 166.943 46.7485 166.541 47.7207C166.138 48.693 165.931 49.735 165.931 50.7873C165.931 54.0256 167.906 56.9096 169.726 58.9005C170.515 59.7603 171.364 60.5627 172.266 61.3036ZM173.944 53.6811C173.177 53.6811 172.441 53.3762 171.898 52.8335C171.355 52.2908 171.05 51.5548 171.05 50.7873C171.05 50.0199 171.355 49.2838 171.898 48.7412C172.441 48.1985 173.177 47.8936 173.944 47.8936C174.712 47.8936 175.448 48.1985 175.99 48.7412C176.533 49.2838 176.838 50.0199 176.838 50.7873C176.838 51.5548 176.533 52.2908 175.99 52.8335C175.448 53.3762 174.712 53.6811 173.944 53.6811Z" fill="#2A2A2A"/>
</g>
<path d="M92.7729 74.1249C93.3124 74.5701 93.8752 74.977 94.4512 75.3741C95.0285 74.9823 95.5885 74.5655 96.1296 74.1249C97.0315 73.3843 97.8804 72.5813 98.6698 71.7218C100.49 69.7318 102.465 66.847 102.465 63.6087C102.465 62.5563 102.257 61.5143 101.855 60.5421C101.452 59.5698 100.862 58.6864 100.118 57.9423C99.3735 57.1982 98.4901 56.6079 97.5178 56.2052C96.5456 55.8025 95.5036 55.5953 94.4512 55.5953C93.3989 55.5953 92.3569 55.8025 91.3846 56.2052C90.4124 56.6079 89.529 57.1982 88.7849 57.9423C88.0408 58.6864 87.4505 59.5698 87.0478 60.5421C86.6451 61.5143 86.4378 62.5563 86.4378 63.6087C86.4378 66.847 88.4127 69.7309 90.2326 71.7218C91.022 72.5816 91.8709 73.3841 92.7729 74.1249ZM94.4512 66.5024C93.6838 66.5024 92.9477 66.1975 92.405 65.6548C91.8624 65.1122 91.5575 64.3761 91.5575 63.6087C91.5575 62.8412 91.8624 62.1052 92.405 61.5625C92.9477 61.0198 93.6838 60.7149 94.4512 60.7149C95.2187 60.7149 95.9547 61.0198 96.4974 61.5625C97.0401 62.1052 97.345 62.8412 97.345 63.6087C97.345 64.3761 97.0401 65.1122 96.4974 65.6548C95.9547 66.1975 95.2187 66.5024 94.4512 66.5024Z" fill="#2A2A2A"/>
<g clip-path="url(#clip19_384_135)">
<path d="M68.8393 80.9631C69.3789 81.4083 69.9416 81.8152 70.5177 82.2123C71.095 81.8205 71.655 81.4037 72.196 80.9631C73.098 80.2225 73.9468 79.4195 74.7363 78.56C76.5562 76.57 78.5311 73.6852 78.5311 70.4469C78.5311 69.3945 78.3238 68.3525 77.9211 67.3803C77.5184 66.408 76.9281 65.5246 76.184 64.7805C75.4399 64.0364 74.5565 63.4461 73.5843 63.0434C72.6121 62.6407 71.57 62.4334 70.5177 62.4334C69.4653 62.4334 68.4233 62.6407 67.4511 63.0434C66.4789 63.4461 65.5955 64.0364 64.8513 64.7805C64.1072 65.5246 63.517 66.408 63.1143 67.3803C62.7115 68.3525 62.5043 69.3945 62.5043 70.4469C62.5043 73.6852 64.4791 76.5691 66.2991 78.56C67.0885 79.4198 67.9373 80.2222 68.8393 80.9631ZM70.5177 73.3406C69.7502 73.3406 69.0142 73.0357 68.4715 72.493C67.9288 71.9504 67.624 71.2143 67.624 70.4469C67.624 69.6794 67.9288 68.9434 68.4715 68.4007C69.0142 67.858 69.7502 67.5531 70.5177 67.5531C71.2851 67.5531 72.0212 67.858 72.5639 68.4007C73.1065 68.9434 73.4114 69.6794 73.4114 70.4469C73.4114 71.2143 73.1065 71.9504 72.5639 72.493C72.0212 73.0357 71.2851 73.3406 70.5177 73.3406Z" fill="#2A2A2A"/>
</g>
<path d="M73.9681 57.8846C74.5077 58.3298 75.0704 58.7367 75.6465 59.1338C76.2238 58.742 76.7838 58.3252 77.3249 57.8846C78.2268 57.144 79.0757 56.341 79.8651 55.4815C81.6851 53.4915 83.6599 50.6067 83.6599 47.3684C83.6599 46.316 83.4527 45.274 83.0499 44.3018C82.6472 43.3295 82.057 42.4461 81.3128 41.702C80.5687 40.9579 79.6853 40.3676 78.7131 39.9649C77.7409 39.5622 76.6988 39.3549 75.6465 39.3549C74.5942 39.3549 73.5521 39.5622 72.5799 39.9649C71.6077 40.3676 70.7243 40.9579 69.9802 41.702C69.2361 42.4461 68.6458 43.3295 68.2431 44.3018C67.8404 45.274 67.6331 46.316 67.6331 47.3684C67.6331 50.6067 69.608 53.4906 71.4279 55.4815C72.2173 56.3413 73.0662 57.1437 73.9681 57.8846ZM75.6465 50.2621C74.879 50.2621 74.143 49.9572 73.6003 49.4145C73.0577 48.8719 72.7528 48.1358 72.7528 47.3684C72.7528 46.6009 73.0577 45.8649 73.6003 45.3222C74.143 44.7795 74.879 44.4746 75.6465 44.4746C76.414 44.4746 77.15 44.7795 77.6927 45.3222C78.2354 45.8649 78.5402 46.6009 78.5402 47.3684C78.5402 48.1358 78.2354 48.8719 77.6927 49.4145C77.15 49.9572 76.414 50.2621 75.6465 50.2621Z" fill="#2A2A2A"/>
<g clip-path="url(#clip20_384_135)">
<path d="M58.5822 39.9345C59.1217 40.3797 59.6844 40.7866 60.2605 41.1837C60.8378 40.7918 61.3978 40.375 61.9389 39.9345C62.8408 39.1939 63.6897 38.3909 64.4791 37.5313C66.2991 35.5413 68.2739 32.6565 68.2739 29.4182C68.2739 28.3659 68.0667 27.3238 67.664 26.3516C67.2612 25.3794 66.671 24.496 65.9269 23.7519C65.1827 23.0077 64.2994 22.4175 63.3271 22.0148C62.3549 21.6121 61.3129 21.4048 60.2605 21.4048C59.2082 21.4048 58.1662 21.6121 57.1939 22.0148C56.2217 22.4175 55.3383 23.0077 54.5942 23.7519C53.8501 24.496 53.2598 25.3794 52.8571 26.3516C52.4544 27.3238 52.2471 28.3659 52.2471 29.4182C52.2471 32.6565 54.222 35.5405 56.0419 37.5313C56.8313 38.3912 57.6802 39.1936 58.5822 39.9345ZM60.2605 32.3119C59.4931 32.3119 58.757 32.0071 58.2143 31.4644C57.6717 30.9217 57.3668 30.1857 57.3668 29.4182C57.3668 28.6507 57.6717 27.9147 58.2143 27.372C58.757 26.8293 59.4931 26.5245 60.2605 26.5245C61.028 26.5245 61.764 26.8293 62.3067 27.372C62.8494 27.9147 63.1543 28.6507 63.1543 29.4182C63.1543 30.1857 62.8494 30.9217 62.3067 31.4644C61.764 32.0071 61.028 32.3119 60.2605 32.3119Z" fill="#2A2A2A"/>
</g>
<g clip-path="url(#clip21_384_135)">
<path d="M27.8107 110.025C28.3502 110.47 28.913 110.877 29.489 111.274C30.0663 110.882 30.6263 110.466 31.1674 110.025C32.0694 109.284 32.9182 108.481 33.7076 107.622C35.5276 105.632 37.5024 102.747 37.5024 99.5087C37.5024 98.4564 37.2952 97.4144 36.8925 96.4421C36.4897 95.4699 35.8995 94.5865 35.1554 93.8424C34.4113 93.0983 33.5279 92.508 32.5556 92.1053C31.5834 91.7026 30.5414 91.4953 29.489 91.4953C28.4367 91.4953 27.3947 91.7026 26.4224 92.1053C25.4502 92.508 24.5668 93.0983 23.8227 93.8424C23.0786 94.5865 22.4883 95.4699 22.0856 96.4421C21.6829 97.4144 21.4756 98.4564 21.4756 99.5087C21.4756 102.747 23.4505 105.631 25.2704 107.622C26.0598 108.482 26.9087 109.284 27.8107 110.025ZM29.489 102.402C28.7216 102.402 27.9855 102.098 27.4429 101.555C26.9002 101.012 26.5953 100.276 26.5953 99.5087C26.5953 98.7413 26.9002 98.0052 27.4429 97.4626C27.9855 96.9199 28.7216 96.615 29.489 96.615C30.2565 96.615 30.9925 96.9199 31.5352 97.4626C32.0779 98.0052 32.3828 98.7413 32.3828 99.5087C32.3828 100.276 32.0779 101.012 31.5352 101.555C30.9925 102.098 30.2565 102.402 29.489 102.402Z" fill="#2A2A2A"/>
</g>
<g clip-path="url(#clip22_384_135)">
<path d="M9.00595 125.411C9.54552 125.856 10.1082 126.263 10.6843 126.66C11.2616 126.268 11.8216 125.851 12.3627 125.411C13.2646 124.67 14.1135 123.867 14.9029 123.008C16.7229 121.018 18.6977 118.133 18.6977 114.894C18.6977 113.842 18.4905 112.8 18.0877 111.828C17.685 110.856 17.0948 109.972 16.3507 109.228C15.6065 108.484 14.7231 107.894 13.7509 107.491C12.7787 107.088 11.7366 106.881 10.6843 106.881C9.63198 106.881 8.58994 107.088 7.61771 107.491C6.64548 107.894 5.76209 108.484 5.01797 109.228C4.27386 109.972 3.68359 110.856 3.28088 111.828C2.87817 112.8 2.6709 113.842 2.6709 114.894C2.6709 118.133 4.64576 121.017 6.46569 123.008C7.25512 123.867 8.10396 124.67 9.00595 125.411ZM10.6843 117.788C9.91685 117.788 9.18081 117.483 8.63813 116.941C8.09545 116.398 7.79058 115.662 7.79058 114.894C7.79058 114.127 8.09545 113.391 8.63813 112.848C9.18081 112.306 9.91685 112.001 10.6843 112.001C11.4518 112.001 12.1878 112.306 12.7305 112.848C13.2732 113.391 13.578 114.127 13.578 114.894C13.578 115.662 13.2732 116.398 12.7305 116.941C12.1878 117.483 11.4518 117.788 10.6843 117.788Z" fill="#2A2A2A"/>
</g>
<path d="M15.8439 92.9299C16.3835 93.3751 16.9462 93.782 17.5223 94.1791C18.0996 93.7873 18.6596 93.3705 19.2006 92.9299C20.1026 92.1893 20.9514 91.3863 21.7409 90.5268C23.5608 88.5368 25.5357 85.6519 25.5357 82.4136C25.5357 81.3613 25.3284 80.3193 24.9257 79.347C24.523 78.3748 23.9327 77.4914 23.1886 76.7473C22.4445 76.0032 21.5611 75.4129 20.5889 75.0102C19.6166 74.6075 18.5746 74.4002 17.5223 74.4002C16.4699 74.4002 15.4279 74.6075 14.4557 75.0102C13.4834 75.4129 12.6 76.0032 11.8559 76.7473C11.1118 77.4914 10.5215 78.3748 10.1188 79.347C9.71612 80.3193 9.50884 81.3613 9.50884 82.4136C9.50884 85.6519 11.4837 88.5359 13.3036 90.5268C14.0931 91.3866 14.9419 92.189 15.8439 92.9299ZM17.5223 85.3074C16.7548 85.3074 16.0188 85.0025 15.4761 84.4598C14.9334 83.9171 14.6285 83.1811 14.6285 82.4136C14.6285 81.6462 14.9334 80.9101 15.4761 80.3675C16.0188 79.8248 16.7548 79.5199 17.5223 79.5199C18.2897 79.5199 19.0258 79.8248 19.5684 80.3675C20.1111 80.9101 20.416 81.6462 20.416 82.4136C20.416 83.1811 20.1111 83.9171 19.5684 84.4598C19.0258 85.0025 18.2897 85.3074 17.5223 85.3074Z" fill="#2A2A2A"/>
<path d="M375.7 32.2417C376.239 32.6869 376.802 33.0938 377.378 33.4909C377.956 33.0991 378.516 32.6823 379.057 32.2417C379.959 31.5011 380.807 30.6981 381.597 29.8386C383.417 27.8486 385.392 24.9638 385.392 21.7255C385.392 20.6731 385.184 19.6311 384.782 18.6589C384.379 17.6866 383.789 16.8032 383.045 16.0591C382.3 15.315 381.417 14.7247 380.445 14.322C379.473 13.9193 378.431 13.712 377.378 13.712C376.326 13.712 375.284 13.9193 374.312 14.322C373.339 14.7247 372.456 15.315 371.712 16.0591C370.968 16.8032 370.378 17.6866 369.975 18.6589C369.572 19.6311 369.365 20.6731 369.365 21.7255C369.365 24.9638 371.34 27.8477 373.16 29.8386C373.949 30.6984 374.798 31.5008 375.7 32.2417ZM377.378 24.6192C376.611 24.6192 375.875 24.3143 375.332 23.7716C374.789 23.2289 374.485 22.4929 374.485 21.7255C374.485 20.958 374.789 20.222 375.332 19.6793C375.875 19.1366 376.611 18.8317 377.378 18.8317C378.146 18.8317 378.882 19.1366 379.424 19.6793C379.967 20.222 380.272 20.958 380.272 21.7255C380.272 22.4929 379.967 23.2289 379.424 23.7716C378.882 24.3143 378.146 24.6192 377.378 24.6192Z" fill="#2A2A2A"/>
<g clip-path="url(#clip23_384_135)">
<path d="M397.924 19.4201C398.463 19.8653 399.026 20.2722 399.602 20.6693C400.18 20.2775 400.74 19.8607 401.281 19.4201C402.183 18.6795 403.031 17.8765 403.821 17.017C405.641 15.027 407.616 12.1422 407.616 8.90388C407.616 7.85154 407.408 6.80951 407.006 5.83728C406.603 4.86504 406.013 3.98165 405.269 3.23754C404.524 2.49342 403.641 1.90316 402.669 1.50045C401.697 1.09773 400.655 0.890462 399.602 0.890462C398.55 0.890462 397.508 1.09773 396.536 1.50045C395.563 1.90316 394.68 2.49342 393.936 3.23754C393.192 3.98165 392.601 4.86504 392.199 5.83728C391.796 6.80951 391.589 7.85154 391.589 8.90388C391.589 12.1422 393.564 15.0261 395.384 17.017C396.173 17.8768 397.022 18.6793 397.924 19.4201ZM399.602 11.7976C398.835 11.7976 398.099 11.4927 397.556 10.9501C397.013 10.4074 396.708 9.67134 396.708 8.90388C396.708 8.13641 397.013 7.40038 397.556 6.8577C398.099 6.31502 398.835 6.01014 399.602 6.01014C400.37 6.01014 401.106 6.31502 401.648 6.8577C402.191 7.40038 402.496 8.13641 402.496 8.90388C402.496 9.67134 402.191 10.4074 401.648 10.9501C401.106 11.4927 400.37 11.7976 399.602 11.7976Z" fill="#2A2A2A"/>
</g>
<path d="M402.197 41.6441C402.737 42.0893 403.3 42.4962 403.876 42.8933C404.453 42.5014 405.013 42.0846 405.554 41.6441C406.456 40.9035 407.305 40.1005 408.094 39.2409C409.914 37.2509 411.889 34.3661 411.889 31.1278C411.889 30.0755 411.682 29.0334 411.279 28.0612C410.876 27.089 410.286 26.2056 409.542 25.4615C408.798 24.7174 407.915 24.1271 406.942 23.7244C405.97 23.3217 404.928 23.1144 403.876 23.1144C402.823 23.1144 401.781 23.3217 400.809 23.7244C399.837 24.1271 398.954 24.7174 398.209 25.4615C397.465 26.2056 396.875 27.089 396.472 28.0612C396.07 29.0334 395.862 30.0755 395.862 31.1278C395.862 34.3661 397.837 37.2501 399.657 39.2409C400.447 40.1008 401.295 40.9032 402.197 41.6441ZM403.876 34.0215C403.108 34.0215 402.372 33.7167 401.83 33.174C401.287 32.6313 400.982 31.8953 400.982 31.1278C400.982 30.3603 401.287 29.6243 401.83 29.0816C402.372 28.539 403.108 28.2341 403.876 28.2341C404.643 28.2341 405.379 28.539 405.922 29.0816C406.465 29.6243 406.769 30.3603 406.769 31.1278C406.769 31.8953 406.465 32.6313 405.922 33.174C405.379 33.7167 404.643 34.0215 403.876 34.0215Z" fill="#2A2A2A"/>
<path d="M446.645 23.6939C447.185 24.1391 447.748 24.546 448.324 24.9431C448.901 24.5513 449.461 24.1345 450.002 23.6939C450.904 22.9533 451.753 22.1503 452.542 21.2908C454.362 19.3008 456.337 16.416 456.337 13.1777C456.337 12.1253 456.13 11.0833 455.727 10.1111C455.324 9.13882 454.734 8.25543 453.99 7.51131C453.246 6.7672 452.362 6.17694 451.39 5.77422C450.418 5.37151 449.376 5.16424 448.324 5.16424C447.271 5.16424 446.229 5.37151 445.257 5.77422C444.285 6.17694 443.401 6.7672 442.657 7.51131C441.913 8.25543 441.323 9.13882 440.92 10.1111C440.517 11.0833 440.31 12.1253 440.31 13.1777C440.31 16.416 442.285 19.2999 444.105 21.2908C444.894 22.1506 445.743 22.953 446.645 23.6939ZM448.324 16.0714C447.556 16.0714 446.82 15.7665 446.277 15.2238C445.735 14.6812 445.43 13.9451 445.43 13.1777C445.43 12.4102 445.735 11.6742 446.277 11.1315C446.82 10.5888 447.556 10.2839 448.324 10.2839C449.091 10.2839 449.827 10.5888 450.37 11.1315C450.912 11.6742 451.217 12.4102 451.217 13.1777C451.217 13.9451 450.912 14.6812 450.37 15.2238C449.827 15.7665 449.091 16.0714 448.324 16.0714Z" fill="#2A2A2A"/>
<path d="M391.085 56.175C391.625 56.6202 392.188 57.0271 392.764 57.4242C393.341 57.0324 393.901 56.6156 394.442 56.175C395.344 55.4344 396.193 54.6314 396.982 53.7719C398.802 51.7819 400.777 48.8971 400.777 45.6588C400.777 44.6064 400.57 43.5644 400.167 42.5922C399.764 41.6199 399.174 40.7365 398.43 39.9924C397.686 39.2483 396.803 38.658 395.83 38.2553C394.858 37.8526 393.816 37.6453 392.764 37.6453C391.711 37.6453 390.669 37.8526 389.697 38.2553C388.725 38.658 387.842 39.2483 387.097 39.9924C386.353 40.7365 385.763 41.6199 385.36 42.5922C384.958 43.5644 384.75 44.6064 384.75 45.6588C384.75 48.8971 386.725 51.781 388.545 53.7719C389.335 54.6317 390.183 55.4341 391.085 56.175ZM392.764 48.5525C391.996 48.5525 391.26 48.2476 390.718 47.7049C390.175 47.1622 389.87 46.4262 389.87 45.6588C389.87 44.8913 390.175 44.1553 390.718 43.6126C391.26 43.0699 391.996 42.765 392.764 42.765C393.531 42.765 394.267 43.0699 394.81 43.6126C395.353 44.1553 395.658 44.8913 395.658 45.6588C395.658 46.4262 395.353 47.1622 394.81 47.7049C394.267 48.2476 393.531 48.5525 392.764 48.5525Z" fill="#2A2A2A"/>
<defs>
<clipPath id="clip0_384_135">
<rect width="21.3613" height="21.3613" fill="white" transform="translate(902.631 369.258) scale(1.00037)"/>
</clipPath>
<clipPath id="clip1_384_135">
<rect width="21.3613" height="21.3613" fill="white" transform="translate(738.516 217.11) scale(1.00037)"/>
</clipPath>
<clipPath id="clip2_384_135">
<rect width="21.3613" height="21.3613" fill="white" transform="translate(770.143 182.92) scale(1.00037)"/>
</clipPath>
<clipPath id="clip3_384_135">
<rect width="21.3613" height="21.3613" fill="white" transform="translate(470.12 328.229) scale(1.00037)"/>
</clipPath>
<clipPath id="clip4_384_135">
<rect width="21.3613" height="21.3613" fill="white" transform="translate(440.204 76.0739) scale(1.00037)"/>
</clipPath>
<clipPath id="clip5_384_135">
<rect width="21.3613" height="21.3613" fill="white" transform="translate(446.187 52.9954) scale(1.00037)"/>
</clipPath>
<clipPath id="clip6_384_135">
<rect width="21.3613" height="21.3613" fill="white" transform="translate(421.399 64.9622) scale(1.00037)"/>
</clipPath>
<clipPath id="clip7_384_135">
<rect width="21.3613" height="21.3613" fill="white" transform="translate(394.046 64.1071) scale(1.00037)"/>
</clipPath>
<clipPath id="clip8_384_135">
<rect width="21.3613" height="21.3613" fill="white" transform="translate(400.884 41.0287) scale(1.00037)"/>
</clipPath>
<clipPath id="clip9_384_135">
<rect width="21.3613" height="21.3613" fill="white" transform="translate(415.415 82.9121) scale(1.00037)"/>
</clipPath>
<clipPath id="clip10_384_135">
<rect width="21.3613" height="21.3613" fill="white" transform="translate(426.527 41.0287) scale(1.00037)"/>
</clipPath>
<clipPath id="clip11_384_135">
<rect width="21.3613" height="21.3613" fill="white" transform="translate(369.258 52.9954) scale(1.00037)"/>
</clipPath>
<clipPath id="clip12_384_135">
<rect width="21.3613" height="21.3613" fill="white" transform="translate(366.694 29.9169) scale(1.00037)"/>
</clipPath>
<clipPath id="clip13_384_135">
<rect width="21.3613" height="21.3613" fill="white" transform="translate(88.8953 181.21) scale(1.00037)"/>
</clipPath>
<clipPath id="clip14_384_135">
<rect width="21.3613" height="21.3613" fill="white" transform="translate(105.136 137.617) scale(1.00037)"/>
</clipPath>
<clipPath id="clip15_384_135">
<rect width="21.3613" height="21.3613" fill="white" transform="translate(110.265 108.555) scale(1.00037)"/>
</clipPath>
<clipPath id="clip16_384_135">
<rect width="21.3613" height="21.3613" fill="white" transform="translate(100.007 82.0573) scale(1.00037)"/>
</clipPath>
<clipPath id="clip17_384_135">
<rect width="21.3613" height="21.3613" fill="white" transform="translate(124.796 64.9622) scale(1.00037)"/>
</clipPath>
<clipPath id="clip18_384_135">
<rect width="21.3613" height="21.3613" fill="white" transform="translate(163.26 41.8835) scale(1.00037)"/>
</clipPath>
<clipPath id="clip19_384_135">
<rect width="21.3613" height="21.3613" fill="white" transform="translate(59.8334 61.543) scale(1.00037)"/>
</clipPath>
<clipPath id="clip20_384_135">
<rect width="21.3613" height="21.3613" fill="white" transform="translate(49.5762 20.5143) scale(1.00037)"/>
</clipPath>
<clipPath id="clip21_384_135">
<rect width="21.3613" height="21.3613" fill="white" transform="translate(18.8047 90.6049) scale(1.00037)"/>
</clipPath>
<clipPath id="clip22_384_135">
<rect width="21.3613" height="21.3613" fill="white" transform="translate(0 105.991) scale(1.00037)"/>
</clipPath>
<clipPath id="clip23_384_135">
<rect width="21.3613" height="21.3613" fill="white" transform="translate(388.918) scale(1.00037)"/>
</clipPath>
</defs>
</svg>
