<svg width="36" height="36" viewBox="0 0 36 36" fill="none" xmlns="http://www.w3.org/2000/svg">
<path d="M4.94403 30.903L14.49 21.357M26.511 17.112L23.6535 25.6845C23.6079 25.8219 23.5299 25.9463 23.4259 26.0471C23.322 26.1479 23.1953 26.2221 23.0565 26.2635L5.53953 31.47C5.38172 31.5169 5.21407 31.5196 5.05484 31.4778C4.8956 31.436 4.75088 31.3513 4.63642 31.233C4.52196 31.1147 4.44215 30.9672 4.40567 30.8067C4.36919 30.6461 4.37745 30.4787 4.42953 30.3225L10.1175 13.2615C10.1583 13.139 10.2249 13.0267 10.3129 12.9322C10.4009 12.8378 10.5082 12.7633 10.6275 12.714L18.708 9.387C18.8723 9.31915 19.053 9.30147 19.2273 9.33617C19.4016 9.37087 19.5618 9.45641 19.6875 9.582L26.2935 16.191C26.4117 16.3092 26.4947 16.4579 26.5331 16.6206C26.5715 16.7833 26.5639 16.9534 26.511 17.112Z" stroke="#F0C638" stroke-width="2.25" stroke-linecap="round" stroke-linejoin="round"/>
<path d="M26.688 16.584L30.93 12.3405C31.4924 11.7779 31.8084 11.015 31.8084 10.2195C31.8084 9.42399 31.4924 8.66107 30.93 8.09849L27.75 4.91549C27.4714 4.63678 27.1406 4.41569 26.7766 4.26485C26.4125 4.11401 26.0223 4.03638 25.6283 4.03638C25.2342 4.03638 24.844 4.11401 24.4799 4.26485C24.1159 4.41569 23.7851 4.63678 23.5065 4.91549L19.2645 9.15899M17.6715 18.174C17.4625 17.9651 17.2144 17.7994 16.9414 17.6864C16.6683 17.5734 16.3757 17.5152 16.0802 17.5153C15.7847 17.5154 15.4921 17.5736 15.2192 17.6868C14.9462 17.7999 14.6982 17.9657 14.4893 18.1747C14.2804 18.3837 14.1147 18.6318 14.0016 18.9049C13.8886 19.1779 13.8305 19.4705 13.8306 19.766C13.8306 20.0615 13.8889 20.3541 14.0021 20.6271C14.1152 20.9001 14.281 21.1481 14.49 21.357C14.9121 21.7789 15.4845 22.0158 16.0813 22.0157C16.6781 22.0155 17.2504 21.7783 17.6723 21.3562C18.0941 20.9341 18.3311 20.3617 18.3309 19.765C18.3308 19.1682 18.0936 18.5959 17.6715 18.174Z" stroke="#F0C638" stroke-width="2.25" stroke-linecap="round" stroke-linejoin="round"/>
</svg>
