<svg width="16" height="12" viewBox="0 0 16 12" fill="none" xmlns="http://www.w3.org/2000/svg">
<path d="M5.47199 9.07952L14.2411 0.310411C14.448 0.10347 14.6895 0 14.9654 0C15.2413 0 15.4827 0.10347 15.6897 0.310411C15.8966 0.517352 16.0001 0.763266 16.0001 1.04815C16.0001 1.33304 15.8966 1.57861 15.6897 1.78486L6.19628 11.3041C5.98934 11.5111 5.74791 11.6145 5.47199 11.6145C5.19606 11.6145 4.95463 11.5111 4.74769 11.3041L0.298472 6.85491C0.0915315 6.64797 -0.00780007 6.4024 0.000477555 6.1182C0.00875518 5.834 0.116709 5.58808 0.324339 5.38045C0.53197 5.17282 0.777884 5.06935 1.06208 5.07004C1.34628 5.07073 1.59185 5.1742 1.79879 5.38045L5.47199 9.07952Z" fill="#3ECB90"/>
</svg>
