<svg width="32" height="27" viewBox="0 0 32 27" fill="none" xmlns="http://www.w3.org/2000/svg">
<path d="M19.7286 0.0810047C19.9987 0.156587 20.2513 0.284669 20.472 0.457928C20.6926 0.631187 20.8769 0.846227 21.0143 1.09076C21.1518 1.33528 21.2397 1.60451 21.2731 1.88304C21.3065 2.16156 21.2846 2.44394 21.2088 2.71401L14.9024 25.1828C14.7495 25.7281 14.3863 26.1903 13.8926 26.4677C13.399 26.7452 12.8153 26.8151 12.2701 26.6623C11.7248 26.5094 11.2626 26.1462 10.9852 25.6525C10.7077 25.1589 10.6377 24.5752 10.7906 24.03L17.097 1.55834C17.1727 1.28832 17.3009 1.03587 17.4743 0.815409C17.6476 0.594948 17.8626 0.410795 18.1072 0.273471C18.3517 0.136148 18.6208 0.0483438 18.8993 0.0150755C19.1778 -0.0181927 19.46 0.00372679 19.73 0.0795816L19.7286 0.0810047ZM9.68047 5.82381C10.0803 6.2241 10.3048 6.76671 10.3048 7.33245C10.3048 7.89819 10.0803 8.4408 9.68047 8.84109L5.15455 13.3713L9.68332 17.9001C10.0836 18.3005 10.3084 18.8437 10.3083 19.4099C10.3082 19.9762 10.0831 20.5192 9.68261 20.9195C9.28211 21.3198 8.739 21.5446 8.17275 21.5445C7.6065 21.5443 7.06349 21.3193 6.66319 20.9188L0.62435 14.8799C0.224559 14.4796 0 13.937 0 13.3713C0 12.8055 0.224559 12.2629 0.62435 11.8626L6.66176 5.82381C6.86002 5.62542 7.09543 5.46804 7.35453 5.36067C7.61364 5.2533 7.89136 5.19803 8.17183 5.19803C8.4523 5.19803 8.73002 5.2533 8.98912 5.36067C9.24823 5.46804 9.48221 5.62542 9.68047 5.82381ZM22.3189 8.84109C22.1092 8.64564 21.9409 8.40995 21.8242 8.14808C21.7076 7.8862 21.6448 7.60351 21.6398 7.31686C21.6347 7.03021 21.6874 6.74547 21.7948 6.47965C21.9022 6.21382 22.062 5.97234 22.2647 5.76961C22.4674 5.56689 22.7089 5.40707 22.9747 5.2997C23.2406 5.19233 23.5253 5.1396 23.812 5.14466C24.0986 5.14971 24.3813 5.21246 24.6432 5.32914C24.905 5.44582 25.1407 5.61406 25.3362 5.82381L31.375 11.8612C31.7752 12.2616 32.0001 12.8045 32.0001 13.3706C32.0001 13.9367 31.7752 14.4796 31.375 14.8799L25.3376 20.9188C25.1394 21.1171 24.9041 21.2744 24.6451 21.3817C24.386 21.4891 24.1084 21.5444 23.828 21.5445C23.5477 21.5445 23.27 21.4894 23.011 21.3821C22.7519 21.2749 22.5165 21.1177 22.3182 20.9195C22.1199 20.7213 21.9626 20.4859 21.8552 20.2269C21.7479 19.9679 21.6926 19.6903 21.6925 19.4099C21.6924 19.1295 21.7476 18.8519 21.8548 18.5928C21.9621 18.3338 22.1193 18.0984 22.3175 17.9001L26.8463 13.3713L22.3189 8.84109Z" fill="#F5747E"/>
</svg>
