<svg width="34" height="34" viewBox="0 0 34 34" fill="none" xmlns="http://www.w3.org/2000/svg">
<path d="M14.3296 30.899C15.1881 31.6073 16.0834 32.2547 17 32.8866C17.9186 32.2631 18.8095 31.6 19.6704 30.899C21.1055 29.7206 22.4561 28.443 23.7122 27.0754C26.6078 23.9092 29.75 19.3192 29.75 14.1667C29.75 12.4924 29.4202 10.8344 28.7795 9.28753C28.1387 7.74063 27.1996 6.33508 26.0156 5.15114C24.8317 3.96719 23.4261 3.02803 21.8792 2.38728C20.3323 1.74654 18.6744 1.41675 17 1.41675C15.3256 1.41675 13.6677 1.74654 12.1208 2.38728C10.5739 3.02803 9.16833 3.96719 7.98439 5.15114C6.80044 6.33508 5.86128 7.74063 5.22054 9.28753C4.57979 10.8344 4.25 12.4924 4.25 14.1667C4.25 19.3192 7.39217 23.9077 10.2878 27.0754C11.5439 28.4435 12.8945 29.7202 14.3296 30.899ZM17 18.7709C15.7789 18.7709 14.6078 18.2858 13.7444 17.4224C12.8809 16.5589 12.3958 15.3878 12.3958 14.1667C12.3958 12.9456 12.8809 11.7746 13.7444 10.9111C14.6078 10.0477 15.7789 9.56258 17 9.56258C18.2211 9.56258 19.3922 10.0477 20.2556 10.9111C21.1191 11.7746 21.6042 12.9456 21.6042 14.1667C21.6042 15.3878 21.1191 16.5589 20.2556 17.4224C19.3922 18.2858 18.2211 18.7709 17 18.7709Z" fill="#3ECB90"/>
</svg>
