<svg width="20" height="20" viewBox="0 0 20 20" fill="none" xmlns="http://www.w3.org/2000/svg">
<rect x="0.5" y="0.5" width="19" height="19" rx="9.5" stroke="#52D09C"/>
<path d="M8.45207 11.7279L13.9842 6.19583C14.1147 6.06528 14.267 6 14.4411 6C14.6152 6 14.7675 6.06528 14.898 6.19583C15.0286 6.32638 15.0939 6.48152 15.0939 6.66124C15.0939 6.84097 15.0286 6.99589 14.898 7.126L8.909 13.1314C8.77845 13.2619 8.62614 13.3272 8.45207 13.3272C8.278 13.3272 8.12569 13.2619 7.99514 13.1314L5.18829 10.3245C5.05774 10.194 4.99508 10.039 5.0003 9.85974C5.00552 9.68045 5.07363 9.52532 5.20461 9.39433C5.3356 9.26334 5.49074 9.19807 5.67003 9.1985C5.84932 9.19894 6.00424 9.26421 6.13479 9.39433L8.45207 11.7279Z" fill="#52D09C"/>
</svg>
