<svg width="40" height="40" viewBox="0 0 40 40" fill="none" xmlns="http://www.w3.org/2000/svg">
<g clip-path="url(#clip0_1007_11)">
<path fill-rule="evenodd" clip-rule="evenodd" d="M33.1199 8.9167L35.2366 22.9167V22.9C35.9032 27.3167 36.2532 31.85 36.2532 36.3334C36.2532 36.8834 35.9032 37.3667 35.3699 37.5334L27.0366 40.0334C26.8409 40.0848 26.6368 40.0962 26.4366 40.0667L4.7699 35.9C4.4667 35.847 4.19428 35.6825 4.00617 35.4389C3.81805 35.1953 3.72783 34.8901 3.75323 34.5834L5.45323 12.9334C5.50323 12.4167 5.85323 11.9834 6.35323 11.8334L10.5699 10.6C10.6199 10.2 10.6866 9.80003 10.7532 9.43336C11.8532 4.08336 15.2699 0.383363 18.6032 1.03336C19.7032 1.23336 20.6366 1.90003 21.3532 2.8667H21.5032C21.7082 2.86336 21.9199 2.8617 22.1199 2.90003C23.6199 3.18336 24.8532 4.38336 25.6032 6.2167L26.3366 6.00003H26.3699C26.5366 5.95003 26.7032 5.93336 26.8699 5.9667C26.9032 5.98336 26.9199 5.98336 26.9532 5.98336C27.1032 6.0167 27.2699 6.08336 27.4032 6.18336H27.4199L29.5866 7.85003H31.8866C32.5032 7.85003 33.0366 8.30003 33.1199 8.9167ZM22.8199 7.00003L23.1699 6.90003C23.0199 6.5667 22.8532 6.30003 22.6699 6.0667L22.7166 6.33336C22.7566 6.5517 22.7966 6.7767 22.8199 7.00003ZM20.0449 5.8417C19.3299 6.3417 18.6182 7.2067 18.0032 8.41836L20.3866 7.71836C20.3327 7.08335 20.2183 6.45494 20.0449 5.8417ZM18.7032 3.73503C18.5254 3.60292 18.3205 3.51185 18.1032 3.46836H18.1199C16.4866 3.1517 14.0699 5.68503 13.2032 9.81836L14.9532 9.30169C15.7866 6.78503 17.1532 4.8017 18.7032 3.73503ZM25.4199 8.8517L7.85323 13.9834L6.33657 33.6667L25.4199 37.3334V8.8517ZM27.9199 37.1634V9.71669L28.4032 10.0834C28.6199 10.25 28.8866 10.35 29.1699 10.35H30.8032L32.7532 23.2834C33.3532 27.2834 33.6866 31.3667 33.7366 35.4167L27.9199 37.1634ZM15.3216 14.6C17.7382 13.5167 20.8882 14.6834 21.8049 15.0667V15.1C22.4382 15.3667 22.7382 16.1 22.4716 16.7334C22.3428 17.0379 22.0987 17.279 21.7926 17.404C21.4865 17.5289 21.1433 17.5275 20.8382 17.4C19.5049 16.85 17.5216 16.3834 16.3382 16.9167C15.8716 17.1334 15.5549 17.5 15.3549 18.0667C14.8382 19.5667 16.4049 21.1834 17.8049 22.2834C21.7549 25.4 21.1382 28.3834 20.1549 29.65C19.3049 30.7667 18.0716 31.4667 16.6049 31.6334C16.3382 31.6834 16.0882 31.6834 15.8216 31.6834C13.6049 31.6834 11.5049 30.6334 10.5382 29.85C10.2821 29.6384 10.1193 29.3347 10.085 29.0042C10.0507 28.6737 10.1477 28.343 10.3549 28.0834C10.5665 27.8272 10.8703 27.6645 11.2007 27.6302C11.5312 27.5959 11.8619 27.6928 12.1216 27.9C12.8716 28.5 14.7382 29.3334 16.3216 29.1334C17.1216 29.0334 17.7382 28.7 18.1882 28.1C18.5716 27.5834 18.6882 26.1167 16.2716 24.2167C12.5716 21.3334 12.4382 18.8334 12.9882 17.2334C13.4049 16 14.2049 15.1 15.3216 14.6Z" fill="#3ECB90"/>
</g>
<defs>
<clipPath id="clip0_1007_11">
<rect width="40" height="40" fill="white"/>
</clipPath>
</defs>
</svg>
