<svg width="230" height="45" viewBox="0 0 230 45" fill="none" xmlns="http://www.w3.org/2000/svg">
<g clip-path="url(#clip0_2283_58)">
<path d="M27.6764 23.7898C26.9953 23.411 26.6368 23.1043 26.6368 22.6714C26.6368 22.1122 27.1208 21.7694 27.8915 21.7694C28.7878 21.7694 29.5765 22.1483 29.5765 22.1483L30.2039 20.2181C30.2039 20.2181 29.6303 19.7671 27.9274 19.7671C25.5613 19.7671 23.9122 21.1381 23.9122 23.0502C23.9122 24.1326 24.6829 24.9624 25.7047 25.5577C26.5292 26.0267 26.816 26.3694 26.816 26.8565C26.816 27.3796 26.4038 27.7945 25.633 27.7945C24.4858 27.7945 23.4103 27.1992 23.4103 27.1992L22.747 29.1294C22.747 29.1294 23.7508 29.7969 25.4179 29.7969C27.8557 29.7969 29.5944 28.5883 29.5944 26.4236C29.6303 25.233 28.734 24.4032 27.6764 23.7898Z" fill="black"/>
<path d="M37.3919 19.7311C36.1909 19.7311 35.2588 20.3083 34.5239 21.1742L34.488 21.1562L35.5277 15.6722H32.803L30.168 29.6166H32.8747L33.771 24.8542C34.1295 23.0503 35.0437 21.9499 35.9041 21.9499C36.5136 21.9499 36.7466 22.3648 36.7466 22.9601C36.7466 23.3389 36.7107 23.7899 36.6211 24.1687L35.5994 29.6346H38.3061L39.3637 24.0064C39.4891 23.4111 39.5608 22.7075 39.5608 22.2205C39.5967 20.6511 38.808 19.7311 37.3919 19.7311Z" fill="black"/>
<path d="M45.7271 19.731C42.4647 19.731 40.2958 22.6894 40.2958 25.9906C40.2958 28.1012 41.5864 29.8149 44.0242 29.8149C47.2328 29.8149 49.3838 26.9287 49.3838 23.5553C49.4017 21.5891 48.2725 19.731 45.7271 19.731ZM44.4006 27.7044C43.4685 27.7044 43.0921 26.9106 43.0921 25.9185C43.0921 24.3491 43.8987 21.8055 45.3686 21.8055C46.3365 21.8055 46.6413 22.6353 46.6413 23.4471C46.6413 25.1428 45.8346 27.7044 44.4006 27.7044Z" fill="black"/>
<path d="M56.3388 19.731C54.5104 19.731 53.4708 21.3545 53.4708 21.3545H53.4349L53.5962 19.8934H51.1943C51.0688 20.8855 50.8537 22.3828 50.6386 23.5193L48.7564 33.4769H51.4631L52.216 29.4361H52.2698C52.2698 29.4361 52.8255 29.7969 53.8651 29.7969C57.0558 29.7969 59.1351 26.5138 59.1351 23.1945C59.1351 21.3726 58.3285 19.731 56.3388 19.731ZM53.7576 27.7585C53.0585 27.7585 52.6462 27.3616 52.6462 27.3616L53.0943 24.8181C53.417 23.1224 54.2953 21.9859 55.2274 21.9859C56.052 21.9859 56.3029 22.7616 56.3029 23.4832C56.3029 25.233 55.2633 27.7585 53.7576 27.7585Z" fill="black"/>
<path d="M63.0069 15.8165C62.1465 15.8165 61.4474 16.502 61.4474 17.404C61.4474 18.2157 61.9494 18.775 62.7201 18.775H62.756C63.5985 18.775 64.3334 18.1977 64.3513 17.1875C64.3693 16.3757 63.8315 15.8165 63.0069 15.8165Z" fill="black"/>
<path d="M59.2068 29.6165H61.9314L63.7777 19.9475H61.0352L59.2068 29.6165Z" fill="black"/>
<path d="M70.661 19.9295H68.7788L68.8685 19.4785C69.0298 18.5404 69.5676 17.7106 70.4817 17.7106C70.9657 17.7106 71.3421 17.855 71.3421 17.855L71.8799 15.7263C71.8799 15.7263 71.4138 15.4918 70.41 15.4918C69.4421 15.4918 68.492 15.7624 67.7571 16.3938C66.825 17.1875 66.3948 18.324 66.1797 19.4785L66.108 19.9295H64.8532L64.4589 21.9859H65.7136L64.2796 29.6165H66.9863L68.4203 21.9859H70.2846L70.661 19.9295Z" fill="black"/>
<path d="M77.1857 19.9475C77.1857 19.9475 75.4828 24.2408 74.73 26.5859H74.6941C74.6404 25.8283 74.0309 19.9475 74.0309 19.9475H71.1808L72.812 28.8228C72.8479 29.0212 72.8299 29.1475 72.7582 29.2738C72.4356 29.8871 71.9157 30.4824 71.2884 30.9154C70.7865 31.2942 70.2129 31.5287 69.7647 31.691L70.5176 34.0001C71.0733 33.8738 72.2025 33.4228 73.1705 32.5208C74.4073 31.3483 75.5546 29.5624 76.7197 27.1091L80.0358 19.9475H77.1857Z" fill="black"/>
<path d="M13.408 13.6698C13.408 13.6698 13.1571 13.742 12.7448 13.8683C12.6731 13.6338 12.5655 13.3632 12.4221 13.0745C11.9561 12.1726 11.257 11.6855 10.4324 11.6855C10.3787 11.6855 10.3249 11.6855 10.2532 11.7036C10.2353 11.6675 10.1994 11.6494 10.1815 11.6134C9.82299 11.2165 9.35693 11.0361 8.80125 11.0541C7.72574 11.0902 6.65023 11.8659 5.78982 13.2549C5.18037 14.229 4.71431 15.4557 4.58884 16.4118C3.352 16.7906 2.49159 17.0612 2.47367 17.0792C1.84629 17.2777 1.82836 17.2957 1.75666 17.891C1.70289 18.342 0.053772 31.0416 0.053772 31.0416L13.6052 33.4047V13.6518C13.4976 13.6518 13.4439 13.6698 13.408 13.6698ZM10.2711 14.6439C9.55411 14.8604 8.7654 15.113 7.99462 15.3475C8.20972 14.4996 8.63993 13.6518 9.14183 13.0926C9.33901 12.8941 9.60788 12.6596 9.91261 12.5153C10.2173 13.1647 10.289 14.0487 10.2711 14.6439ZM8.80125 11.7938C9.0522 11.7938 9.26731 11.8479 9.44656 11.9561C9.15975 12.1004 8.87295 12.3349 8.60407 12.6055C7.92292 13.3451 7.40309 14.4996 7.18799 15.6C6.54268 15.7985 5.89738 15.9969 5.30584 16.1773C5.7002 14.4455 7.15214 11.8298 8.80125 11.7938ZM6.72193 21.7153C6.79363 22.8698 9.82299 23.1224 10.0022 25.8463C10.1277 27.993 8.87295 29.4541 7.06251 29.5624C4.87564 29.7067 3.67465 28.4079 3.67465 28.4079L4.14071 26.4236C4.14071 26.4236 5.3417 27.3436 6.30965 27.2714C6.93703 27.2353 7.17006 26.7122 7.15214 26.3514C7.06251 24.8361 4.58884 24.9263 4.42751 22.4369C4.28411 20.3443 5.64642 18.2338 8.65785 18.0353C9.82299 17.9632 10.4145 18.2518 10.4145 18.2518L9.73336 20.8494C9.73336 20.8494 8.96258 20.4887 8.04839 20.5608C6.72193 20.651 6.70401 21.4989 6.72193 21.7153ZM10.9881 14.4275C10.9881 13.8863 10.9164 13.1106 10.6655 12.4612C11.49 12.6236 11.8844 13.5436 12.0636 14.1028C11.741 14.193 11.3825 14.3012 10.9881 14.4275Z" fill="black"/>
<path d="M14.0175 33.3687L19.646 31.9616C19.646 31.9616 17.2261 15.4918 17.2082 15.3836C17.1902 15.2753 17.1006 15.2032 17.011 15.2032C16.9213 15.2032 15.3439 15.1671 15.3439 15.1671C15.3439 15.1671 14.376 14.2291 14.0175 13.8683V33.3687Z" fill="black"/>
</g>
<g clip-path="url(#clip1_2283_58)">
<path d="M161.24 24.9514C161.24 28.0018 158.703 30.4513 155.555 30.4513C154.193 30.4513 152.948 29.9198 151.985 29.111L150.012 30.4513V14.0441H151.985V21.023C152.948 20.1448 154.17 19.5902 155.555 19.5902C158.703 19.5902 161.24 21.9011 161.24 24.9514ZM151.985 24.9514C151.985 26.8695 153.535 28.3947 155.555 28.3947C157.528 28.3947 159.102 26.8695 159.102 24.9514C159.102 23.0565 157.528 21.67 155.555 21.67C153.535 21.67 151.985 23.0565 151.985 24.9514Z" fill="black"/>
<path d="M165.303 16.5167C165.303 17.2793 164.622 17.9263 163.823 17.9263C163.024 17.9263 162.343 17.2793 162.343 16.5167C162.343 15.731 163.024 15.084 163.823 15.084C164.622 15.084 165.303 15.731 165.303 16.5167ZM164.833 19.7751V30.2202H162.789V19.7751H164.833Z" fill="black"/>
<path d="M169.813 16.9327V19.8213H171.574V21.8086H169.813V30.2203H167.769V21.8086H166.007V19.8213H167.769V16.9327H169.813Z" fill="black"/>
<path d="M174.698 29.0186V35.9975H172.725V19.5902L174.698 20.9305C175.661 20.1217 177 19.5902 178.362 19.5902C181.51 19.5902 183.976 21.9473 183.976 24.9976C183.976 28.0481 181.51 30.4513 178.362 30.4513C176.976 30.4513 175.661 29.8968 174.698 29.0186ZM181.839 24.9976C181.839 23.1027 180.335 21.6469 178.362 21.6469C176.342 21.6469 174.698 23.1027 174.698 24.9976C174.698 26.9157 176.342 28.3716 178.362 28.3716C180.335 28.3716 181.839 26.9157 181.839 24.9976Z" fill="black"/>
<path d="M194.193 21.023V19.8213H196.049V30.4513L194.193 29.1341C193.23 29.943 191.915 30.4513 190.553 30.4513C187.405 30.4513 184.845 28.0481 184.845 25.0439C184.845 22.0397 187.405 19.5902 190.553 19.5902C191.938 19.5902 193.23 20.1448 194.193 21.023ZM186.982 25.0439C186.982 26.9157 188.579 28.4409 190.553 28.4409C192.549 28.4409 194.193 26.9157 194.193 25.0439C194.193 23.1721 192.549 21.6469 190.553 21.6469C188.579 21.6469 186.982 23.1721 186.982 25.0439Z" fill="black"/>
<path d="M203.941 21.3003L202.555 22.4327C202.203 21.9243 201.662 21.6238 200.958 21.6238C200.065 21.6238 199.831 21.9936 199.831 22.5482C199.831 24.3738 204.411 23.7037 204.411 27.1006C204.411 29.1804 202.484 30.4514 200.418 30.4514C199.196 30.4514 197.904 29.8275 197.2 28.7645L198.68 27.5166C199.079 28.0019 199.713 28.441 200.417 28.441C201.381 28.441 202.367 27.9788 202.367 27.1006C202.344 25.1826 197.787 25.9452 197.787 22.4789C197.787 21.0692 198.867 19.5903 200.958 19.5903C202.179 19.5902 203.236 20.2142 203.941 21.3003Z" fill="black"/>
<path d="M208.732 16.9327V19.8213H210.494V21.8086H208.732V30.2203H206.689V21.8086H204.927V19.8213H206.689V16.9327H208.732Z" fill="black"/>
<path d="M221.041 22.5481L213.689 27.401C214.299 28.025 215.239 28.4178 216.296 28.4178C217.282 28.4178 218.198 28.0481 218.88 27.4472L220.406 28.7413C219.35 29.7812 217.893 30.4513 216.296 30.4513C213.148 30.4513 210.588 28.025 210.588 25.0208C210.588 22.0397 213.148 19.5902 216.296 19.5902C218.504 19.5902 220.172 20.8612 221.041 22.5481ZM218.128 22.317C217.87 21.9242 217.236 21.6238 216.296 21.6238C214.323 21.6238 212.725 23.1489 212.725 25.0208C212.725 25.3212 212.749 25.6447 212.796 25.8989L218.128 22.317Z" fill="black"/>
<path d="M224.071 14.0441V30.2203H222.027V14.0441H224.071Z" fill="black"/>
<path d="M229.972 16.3455C229.972 17.6406 228.909 18.6575 227.622 18.6575C226.393 18.6575 225.33 17.6214 225.33 16.3552C225.33 15.0697 226.394 14.0336 227.651 14.0336C228.909 14.0336 229.972 15.0696 229.972 16.3455ZM225.876 16.3551C225.876 17.3432 226.686 18.1587 227.622 18.1587C228.617 18.1587 229.416 17.372 229.416 16.3455C229.416 15.3574 228.607 14.542 227.651 14.542C226.686 14.542 225.876 15.3574 225.876 16.3551ZM227.622 14.9737C228.441 14.9737 228.763 15.3094 228.763 15.8179C228.763 16.2016 228.529 16.5086 227.885 16.547L228.734 17.679H228.188L227.349 16.6141H227.31V17.679H226.754V14.9737H227.622ZM227.612 16.1248H227.642C228.032 16.1248 228.168 15.9714 228.168 15.8179C228.149 15.5972 228.032 15.4821 227.612 15.4821H227.31V16.1248H227.612Z" fill="black"/>
</g>
<path d="M115 23.8275L104.945 33.6638C104.766 33.8388 104.546 33.9325 104.286 33.945C104.025 33.9575 103.793 33.8638 103.588 33.6638C103.384 33.4638 103.281 33.2425 103.281 33C103.281 32.7575 103.384 32.5363 103.588 32.3363L113.643 22.5L103.588 12.6638C103.409 12.4888 103.313 12.2738 103.301 12.0188C103.288 11.7638 103.384 11.5363 103.588 11.3363C103.793 11.1363 104.019 11.0363 104.267 11.0363C104.515 11.0363 104.741 11.1363 104.945 11.3363L115 21.1725L125.055 11.3363C125.234 11.1613 125.454 11.0675 125.716 11.055C125.975 11.0425 126.207 11.1363 126.412 11.3363C126.616 11.5363 126.718 11.7575 126.718 12C126.718 12.2425 126.616 12.4638 126.412 12.6638L116.357 22.5L126.412 32.3363C126.591 32.5113 126.687 32.7269 126.699 32.9831C126.712 33.2369 126.616 33.4638 126.412 33.6638C126.207 33.8638 125.981 33.9638 125.733 33.9638C125.485 33.9638 125.259 33.8638 125.055 33.6638L115 23.8275Z" fill="black"/>
<defs>
<clipPath id="clip0_2283_58">
<rect width="80" height="23" fill="white" transform="translate(0 11)"/>
</clipPath>
<clipPath id="clip1_2283_58">
<rect width="80" height="22" fill="white" transform="translate(150 14)"/>
</clipPath>
</defs>
</svg>
