<svg width="266" height="53" viewBox="0 0 266 53" fill="none" xmlns="http://www.w3.org/2000/svg">
<g clip-path="url(#clip0_2273_60)">
<path d="M31.829 27.4581C31.0457 27.0299 30.6334 26.6832 30.6334 26.1938C30.6334 25.5616 31.19 25.1742 32.0764 25.1742C33.1071 25.1742 34.0141 25.6024 34.0141 25.6024L34.7356 23.4204C34.7356 23.4204 34.0759 22.9106 32.1176 22.9106C29.3965 22.9106 27.5001 24.4604 27.5001 26.622C27.5001 27.8455 28.3865 28.7836 29.5615 29.4565C30.5097 29.9867 30.8395 30.3742 30.8395 30.9248C30.8395 31.5161 30.3654 31.9852 29.479 31.9852C28.1597 31.9852 26.9229 31.3122 26.9229 31.3122L26.1602 33.4942C26.1602 33.4942 27.3145 34.2487 29.2316 34.2487C32.0351 34.2487 34.0347 32.8824 34.0347 30.4354C34.0759 29.0895 33.0452 28.1514 31.829 27.4581Z" fill="black"/>
<path d="M43.0008 22.87C41.6196 22.87 40.5477 23.5225 39.7025 24.5013L39.6613 24.481L40.8569 18.2817H37.7236L34.6934 34.0449H37.8061L38.8368 28.6613C39.249 26.6221 40.3003 25.3782 41.2898 25.3782C41.9907 25.3782 42.2587 25.8472 42.2587 26.5202C42.2587 26.9484 42.2174 27.4582 42.1144 27.8864L40.9394 34.0653H44.0521L45.2683 27.7029C45.4126 27.03 45.4951 26.2347 45.4951 25.6841C45.5363 23.91 44.6293 22.87 43.0008 22.87Z" fill="black"/>
<path d="M52.5878 22.8696C48.8361 22.8696 46.3418 26.2139 46.3418 29.9457C46.3418 32.3316 47.826 34.2688 50.6295 34.2688C54.3194 34.2688 56.7931 31.0061 56.7931 27.1928C56.8137 24.97 55.515 22.8696 52.5878 22.8696ZM51.0624 31.883C49.9905 31.883 49.5576 30.9857 49.5576 29.8641C49.5576 28.09 50.4852 25.2147 52.1755 25.2147C53.2887 25.2147 53.6391 26.1528 53.6391 27.0704C53.6391 28.9873 52.7115 31.883 51.0624 31.883Z" fill="black"/>
<path d="M64.79 22.8696C62.6874 22.8696 61.4918 24.7049 61.4918 24.7049H61.4506L61.6361 23.0532H58.8738C58.7295 24.1747 58.4821 25.8673 58.2348 27.152L56.0703 38.4085H59.183L60.0488 33.8406H60.1106C60.1106 33.8406 60.7497 34.2485 61.9453 34.2485C65.6146 34.2485 68.0058 30.5371 68.0058 26.7849C68.0058 24.7253 67.0782 22.8696 64.79 22.8696ZM61.8216 31.9441C61.0177 31.9441 60.5435 31.4955 60.5435 31.4955L61.0589 28.6202C61.4299 26.7034 62.44 25.4186 63.5119 25.4186C64.4602 25.4186 64.7488 26.2955 64.7488 27.1112C64.7488 29.0892 63.5532 31.9441 61.8216 31.9441Z" fill="black"/>
<path d="M72.4594 18.4448C71.47 18.4448 70.666 19.2197 70.666 20.2393C70.666 21.157 71.2432 21.7891 72.1296 21.7891H72.1708C73.1397 21.7891 73.9849 21.1366 74.0055 19.9946C74.0261 19.077 73.4077 18.4448 72.4594 18.4448Z" fill="black"/>
<path d="M68.0898 34.0445H71.2232L73.3464 23.1143H70.1925L68.0898 34.0445Z" fill="black"/>
<path d="M81.2604 23.0941H79.096L79.199 22.5843C79.3846 21.5239 80.003 20.5859 81.0543 20.5859C81.6109 20.5859 82.0438 20.749 82.0438 20.749L82.6622 18.3427C82.6622 18.3427 82.1262 18.0776 80.9718 18.0776C79.8587 18.0776 78.7661 18.3835 77.921 19.0972C76.8491 19.9945 76.3543 21.2792 76.107 22.5843L76.0245 23.0941H74.5815L74.128 25.4188H75.571L73.9219 34.0447H77.0346L78.6837 25.4188H80.8275L81.2604 23.0941Z" fill="black"/>
<path d="M88.7646 23.1143C88.7646 23.1143 86.8063 27.9676 85.9405 30.6186H85.8993C85.8375 29.7621 85.1366 23.1143 85.1366 23.1143H81.859L83.7348 33.1472C83.7761 33.3715 83.7554 33.5143 83.673 33.657C83.3019 34.3503 82.7041 35.0233 81.9827 35.5127C81.4055 35.9409 80.7458 36.206 80.2305 36.3896L81.0963 38.9997C81.7353 38.857 83.034 38.3472 84.1471 37.3276C85.5695 36.0021 86.8888 33.9833 88.2287 31.2099L92.0423 23.1143H88.7646Z" fill="black"/>
<path d="M15.4199 16.0178C15.4199 16.0178 15.1313 16.0994 14.6572 16.2421C14.5747 15.977 14.451 15.6712 14.2861 15.3449C13.7502 14.3253 12.9462 13.7747 11.998 13.7747C11.9361 13.7747 11.8743 13.7747 11.7918 13.7951C11.7712 13.7543 11.73 13.7339 11.7094 13.6931C11.2971 13.2445 10.7611 13.0406 10.1221 13.061C8.88527 13.1017 7.64843 13.9786 6.65896 15.5488C5.95809 16.65 5.42212 18.0366 5.27783 19.1174C3.85546 19.5457 2.866 19.8515 2.84538 19.8719C2.12389 20.0963 2.10328 20.1166 2.02082 20.7896C1.95898 21.2994 0.0625 35.6555 0.0625 35.6555L15.6466 38.3268V15.9974C15.523 15.9974 15.4611 16.0178 15.4199 16.0178ZM11.8124 17.119C10.9879 17.3637 10.0809 17.6492 9.19447 17.9143C9.44184 16.9559 9.93658 15.9974 10.5138 15.3653C10.7405 15.141 11.0497 14.8759 11.4002 14.7127C11.7506 15.4468 11.8331 16.4461 11.8124 17.119ZM10.1221 13.897C10.4107 13.897 10.6581 13.9582 10.8642 14.0806C10.5344 14.2437 10.2046 14.5088 9.89535 14.8147C9.11202 15.6508 8.51421 16.9559 8.26685 18.1998C7.52475 18.4241 6.78264 18.6484 6.10238 18.8523C6.55589 16.8947 8.22562 13.9378 10.1221 13.897ZM7.73089 25.1127C7.81334 26.4178 11.2971 26.7033 11.5032 29.7825C11.6475 32.2092 10.2046 33.861 8.12255 33.9833C5.60765 34.1464 4.22652 32.6782 4.22652 32.6782L4.76248 30.4351C4.76248 30.4351 6.14361 31.4751 7.25676 31.3935C7.97825 31.3527 8.24623 30.7614 8.22562 30.3535C8.12255 28.6406 5.27783 28.7425 5.0923 25.9284C4.92739 23.5629 6.49405 21.177 9.95719 20.9527C11.2971 20.8712 11.9774 21.1974 11.9774 21.1974L11.194 24.1339C11.194 24.1339 10.3076 23.7261 9.25632 23.8076C7.73089 23.9096 7.71027 24.868 7.73089 25.1127ZM12.637 16.8743C12.637 16.2625 12.5545 15.3857 12.266 14.6515C13.2142 14.8351 13.6677 15.8751 13.8738 16.5072C13.5028 16.6092 13.0905 16.7315 12.637 16.8743Z" fill="black"/>
<path d="M16.1211 38.2861L22.5939 36.6955C22.5939 36.6955 19.811 18.0775 19.7904 17.9551C19.7698 17.8328 19.6667 17.7512 19.5636 17.7512C19.4606 17.7512 17.6465 17.7104 17.6465 17.7104C17.6465 17.7104 16.5334 16.65 16.1211 16.2422V38.2861Z" fill="black"/>
</g>
<g clip-path="url(#clip1_2273_60)">
<path d="M186.926 28.445C186.926 31.9113 184.008 34.6949 180.389 34.6949C178.822 34.6949 177.39 34.0909 176.283 33.1718L174.014 34.6949V16.0503H176.283V23.9809C177.39 22.983 178.795 22.3528 180.389 22.3528C184.008 22.3527 186.926 24.9787 186.926 28.445ZM176.283 28.445C176.283 30.6246 178.066 32.3578 180.389 32.3578C182.658 32.3578 184.467 30.6247 184.467 28.445C184.467 26.2917 182.658 24.7161 180.389 24.7161C178.066 24.7161 176.283 26.2917 176.283 28.445Z" fill="black"/>
<path d="M191.599 18.86C191.599 19.7266 190.815 20.4619 189.897 20.4619C188.979 20.4619 188.195 19.7266 188.195 18.86C188.195 17.9672 188.979 17.2319 189.897 17.2319C190.815 17.2319 191.599 17.9672 191.599 18.86ZM191.059 22.5627V34.4322H188.708V22.5627H191.059Z" fill="black"/>
<path d="M196.784 19.3325V22.615H198.81V24.8734H196.784V34.432H194.434V24.8734H192.408V22.615H194.434V19.3325H196.784Z" fill="black"/>
<path d="M202.402 33.0666V40.9972H200.133V22.3525L202.402 23.8756C203.509 22.9565 205.049 22.3525 206.616 22.3525C210.235 22.3525 213.072 25.031 213.072 28.4974C213.072 31.9637 210.235 34.6947 206.616 34.6947C205.022 34.6947 203.509 34.0646 202.402 33.0666ZM210.614 28.4974C210.614 26.3441 208.885 24.6897 206.616 24.6897C204.293 24.6897 202.402 26.344 202.402 28.4974C202.402 30.677 204.293 32.3314 206.616 32.3314C208.885 32.3314 210.614 30.677 210.614 28.4974Z" fill="black"/>
<path d="M224.823 23.9807V22.6151H226.957V34.6947L224.823 33.1979C223.716 34.117 222.203 34.6947 220.636 34.6947C217.017 34.6947 214.072 31.9637 214.072 28.5499C214.072 25.1361 217.017 22.3525 220.636 22.3525C222.23 22.3525 223.716 22.9828 224.823 23.9807ZM216.53 28.5499C216.53 30.677 218.367 32.4101 220.636 32.4101C222.932 32.4101 224.823 30.677 224.823 28.5499C224.823 26.4228 222.932 24.6897 220.636 24.6897C218.367 24.6897 216.53 26.4228 216.53 28.5499Z" fill="black"/>
<path d="M236.032 24.2958L234.438 25.5825C234.033 25.0048 233.412 24.6634 232.601 24.6634C231.575 24.6634 231.305 25.0835 231.305 25.7138C231.305 27.7883 236.572 27.0269 236.572 30.887C236.572 33.2504 234.357 34.6947 231.98 34.6947C230.575 34.6947 229.09 33.9857 228.279 32.7778L229.981 31.3597C230.44 31.9112 231.169 32.4101 231.98 32.4101C233.088 32.4101 234.222 31.8849 234.222 30.887C234.195 28.7075 228.955 29.574 228.955 25.635C228.955 24.0332 230.197 22.3525 232.601 22.3525C234.006 22.3525 235.222 23.0615 236.032 24.2958Z" fill="black"/>
<path d="M241.542 19.3325V22.615H243.568V24.8734H241.542V34.432H239.192V24.8734H237.166V22.615H239.192V19.3325H241.542Z" fill="black"/>
<path d="M255.696 25.7138L247.242 31.2284C247.944 31.9375 249.024 32.3839 250.24 32.3839C251.374 32.3839 252.428 31.9637 253.211 31.2809L254.967 32.7515C253.751 33.9333 252.076 34.6947 250.24 34.6947C246.62 34.6947 243.676 31.9375 243.676 28.5236C243.676 25.1361 246.62 22.3525 250.24 22.3525C252.779 22.3525 254.697 23.7968 255.696 25.7138ZM252.347 25.4512C252.049 25.0048 251.32 24.6634 250.24 24.6634C247.971 24.6634 246.134 26.3965 246.134 28.5236C246.134 28.865 246.161 29.2327 246.215 29.5215L252.347 25.4512Z" fill="black"/>
<path d="M259.18 16.0503V34.4323H256.83V16.0503H259.18Z" fill="black"/>
<path d="M265.968 18.6653C265.968 20.137 264.746 21.2926 263.266 21.2926C261.853 21.2926 260.631 20.1152 260.631 18.6763C260.631 17.2155 261.853 16.0381 263.3 16.0381C264.746 16.0381 265.968 17.2154 265.968 18.6653ZM261.259 18.6762C261.259 19.799 262.19 20.7257 263.266 20.7257C264.41 20.7257 265.33 19.8317 265.33 18.6653C265.33 17.5424 264.399 16.6158 263.3 16.6158C262.19 16.6158 261.259 17.5424 261.259 18.6762ZM263.266 17.1064C264.208 17.1064 264.578 17.4879 264.578 18.0657C264.578 18.5017 264.309 18.8506 263.569 18.8942L264.545 20.1806H263.917L262.952 18.9705H262.907V20.1806H262.268V17.1064H263.266ZM263.255 18.4145H263.289C263.737 18.4145 263.894 18.2401 263.894 18.0657C263.872 17.815 263.737 17.6842 263.255 17.6842H262.907V18.4145H263.255Z" fill="black"/>
</g>
<path d="M133.5 28.0633L121.915 39.6482C121.709 39.8543 121.456 39.9647 121.155 39.9795C120.855 39.9942 120.587 39.8838 120.351 39.6482C120.116 39.4127 119.998 39.1521 119.998 38.8665C119.998 38.5809 120.116 38.3203 120.351 38.0847L131.936 26.4998L120.351 14.9149C120.145 14.7088 120.035 14.4555 120.02 14.1552C120.005 13.8549 120.116 13.5869 120.351 13.3514C120.587 13.1158 120.848 12.998 121.133 12.998C121.419 12.998 121.679 13.1158 121.915 13.3514L133.5 24.9363L145.085 13.3514C145.291 13.1453 145.545 13.0349 145.847 13.0201C146.145 13.0054 146.413 13.1158 146.648 13.3514C146.884 13.5869 147.002 13.8475 147.002 14.1331C147.002 14.4187 146.884 14.6793 146.648 14.9149L135.063 26.4998L146.648 38.0847C146.854 38.2908 146.965 38.5448 146.979 38.8466C146.994 39.1454 146.884 39.4127 146.648 39.6482C146.413 39.8838 146.152 40.0015 145.866 40.0015C145.581 40.0015 145.32 39.8838 145.085 39.6482L133.5 28.0633Z" fill="black"/>
<defs>
<clipPath id="clip0_2273_60">
<rect width="92" height="26" fill="white" transform="translate(0 13)"/>
</clipPath>
<clipPath id="clip1_2273_60">
<rect width="92" height="25" fill="white" transform="translate(174 16)"/>
</clipPath>
</defs>
</svg>
