<svg width="35" height="35" viewBox="0 0 35 35" fill="none" xmlns="http://www.w3.org/2000/svg">
<path d="M2.63861 32.5981L13.5104 21.7262M27.201 16.8917L23.9467 26.6548C23.8947 26.8113 23.8058 26.9529 23.6874 27.0677C23.5691 27.1825 23.4248 27.2671 23.2667 27.3142L3.31682 33.2438C3.13709 33.2972 2.94616 33.3003 2.76481 33.2527C2.58346 33.2051 2.41863 33.1087 2.28828 32.9739C2.15792 32.8391 2.06702 32.6712 2.02548 32.4884C1.98394 32.3055 1.99333 32.1148 2.05265 31.937L8.53065 12.5064C8.57708 12.3669 8.65298 12.239 8.7532 12.1314C8.85342 12.0238 8.97561 11.939 9.11149 11.8828L18.3143 8.09375C18.5014 8.01648 18.7072 7.99633 18.9057 8.03586C19.1042 8.07538 19.2866 8.1728 19.4298 8.31583L26.9533 15.8427C27.0879 15.9773 27.1824 16.1468 27.2262 16.332C27.2699 16.5173 27.2612 16.7111 27.201 16.8917Z" stroke="#F0C638" stroke-width="2.25" stroke-linecap="round" stroke-linejoin="round"/>
<path d="M27.403 16.2903L32.2341 11.4575C32.8747 10.8167 33.2345 9.94785 33.2345 9.04188C33.2345 8.1359 32.8747 7.26701 32.2341 6.62629L28.6125 3.00121C28.2952 2.68379 27.9185 2.432 27.5038 2.26021C27.0892 2.08842 26.6448 2 26.196 2C25.7472 2 25.3028 2.08842 24.8882 2.26021C24.4736 2.432 24.0969 2.68379 23.7796 3.00121L18.9484 7.83408M17.1342 18.1012C16.8961 17.8633 16.6136 17.6746 16.3026 17.5458C15.9917 17.4171 15.6584 17.3509 15.3219 17.351C14.9853 17.3511 14.6521 17.4174 14.3412 17.5463C14.0303 17.6752 13.7479 17.864 13.5099 18.102C13.272 18.34 13.0833 18.6226 12.9546 18.9336C12.8259 19.2445 12.7597 19.5778 12.7598 19.9143C12.7598 20.2509 12.8262 20.5841 12.9551 20.895C13.0839 21.2059 13.2728 21.4883 13.5108 21.7263C13.9915 22.2067 14.6434 22.4766 15.3231 22.4764C16.0028 22.4763 16.6545 22.2061 17.135 21.7254C17.6155 21.2447 17.8854 20.5928 17.8852 19.9131C17.885 19.2334 17.6149 18.5817 17.1342 18.1012Z" stroke="#F0C638" stroke-width="2.25" stroke-linecap="round" stroke-linejoin="round"/>
</svg>
