<svg width="38" height="38" viewBox="0 0 38 38" fill="none" xmlns="http://www.w3.org/2000/svg">
<path d="M22.5 11.25C22.5 10.9185 22.3683 10.6005 22.1339 10.3661C21.8995 10.1317 21.5815 10 21.25 10C20.9185 10 20.6005 10.1317 20.3661 10.3661C20.1317 10.6005 20 10.9185 20 11.25V15H16.25C15.9185 15 15.6005 15.1317 15.3661 15.3661C15.1317 15.6005 15 15.9185 15 16.25C15 16.5815 15.1317 16.8995 15.3661 17.1339C15.6005 17.3683 15.9185 17.5 16.25 17.5H20V21.25C20 21.5815 20.1317 21.8995 20.3661 22.1339C20.6005 22.3683 20.9185 22.5 21.25 22.5C21.5815 22.5 21.8995 22.3683 22.1339 22.1339C22.3683 21.8995 22.5 21.5815 22.5 21.25V17.5H26.25C26.5815 17.5 26.8995 17.3683 27.1339 17.1339C27.3683 16.8995 27.5 16.5815 27.5 16.25C27.5 15.9185 27.3683 15.6005 27.1339 15.3661C26.8995 15.1317 26.5815 15 26.25 15H22.5V11.25Z" fill="#F5747E"/>
<path d="M1.25 0C0.918479 0 0.600537 0.131696 0.366117 0.366116C0.131696 0.600537 0 0.918479 0 1.25C0 1.58152 0.131696 1.89946 0.366117 2.13388C0.600537 2.3683 0.918479 2.5 1.25 2.5H4.025L5.0275 6.5175L8.7725 26.48C8.82612 26.7664 8.97814 27.0252 9.20228 27.2114C9.42641 27.3976 9.70858 27.4997 10 27.5H12.5C11.1739 27.5 9.90215 28.0268 8.96447 28.9645C8.02678 29.9021 7.5 31.1739 7.5 32.5C7.5 33.8261 8.02678 35.0979 8.96447 36.0355C9.90215 36.9732 11.1739 37.5 12.5 37.5C13.8261 37.5 15.0979 36.9732 16.0355 36.0355C16.9732 35.0979 17.5 33.8261 17.5 32.5C17.5 31.1739 16.9732 29.9021 16.0355 28.9645C15.0979 28.0268 13.8261 27.5 12.5 27.5H30C28.6739 27.5 27.4022 28.0268 26.4645 28.9645C25.5268 29.9021 25 31.1739 25 32.5C25 33.8261 25.5268 35.0979 26.4645 36.0355C27.4022 36.9732 28.6739 37.5 30 37.5C31.3261 37.5 32.5979 36.9732 33.5355 36.0355C34.4732 35.0979 35 33.8261 35 32.5C35 31.1739 34.4732 29.9021 33.5355 28.9645C32.5979 28.0268 31.3261 27.5 30 27.5H32.5C32.7914 27.4997 33.0736 27.3976 33.2977 27.2114C33.5219 27.0252 33.6739 26.7664 33.7275 26.48L37.4775 6.48C37.5113 6.29959 37.5049 6.11396 37.4588 5.93629C37.4128 5.75863 37.3282 5.59328 37.211 5.45201C37.0938 5.31074 36.947 5.197 36.7809 5.11888C36.6148 5.04076 36.4335 5.00017 36.25 5H7.225L6.2125 0.9475C6.14502 0.67696 5.98903 0.436747 5.76933 0.265062C5.54963 0.0933767 5.27883 7.70287e-05 5 0H1.25ZM11.0375 25L7.755 7.5H34.745L31.4625 25H11.0375ZM15 32.5C15 33.163 14.7366 33.7989 14.2678 34.2678C13.7989 34.7366 13.163 35 12.5 35C11.837 35 11.2011 34.7366 10.7322 34.2678C10.2634 33.7989 10 33.163 10 32.5C10 31.837 10.2634 31.2011 10.7322 30.7322C11.2011 30.2634 11.837 30 12.5 30C13.163 30 13.7989 30.2634 14.2678 30.7322C14.7366 31.2011 15 31.837 15 32.5ZM32.5 32.5C32.5 33.163 32.2366 33.7989 31.7678 34.2678C31.2989 34.7366 30.663 35 30 35C29.337 35 28.7011 34.7366 28.2322 34.2678C27.7634 33.7989 27.5 33.163 27.5 32.5C27.5 31.837 27.7634 31.2011 28.2322 30.7322C28.7011 30.2634 29.337 30 30 30C30.663 30 31.2989 30.2634 31.7678 30.7322C32.2366 31.2011 32.5 31.837 32.5 32.5Z" fill="#F5747E"/>
</svg>
