<svg width="35" height="35" viewBox="0 0 35 35" fill="none" xmlns="http://www.w3.org/2000/svg">
<path d="M11.0596 0.275028C12.7383 -0.118702 14.5012 -0.0892027 16.1632 0.360427C17.8252 0.810056 19.3249 1.66322 20.5047 2.83026C21.7365 2.27286 23.1104 2.03572 24.4781 2.14446C25.8457 2.2532 27.1551 2.70369 28.2647 3.44725C29.3743 4.19082 30.242 5.1992 30.774 6.36345C31.306 7.5277 31.4821 8.80356 31.2832 10.0532C32.7782 10.9779 33.9108 12.3199 34.5142 13.8815C35.1177 15.4431 35.16 17.1418 34.635 18.7272C34.11 20.3126 33.0455 21.7009 31.5982 22.6878C30.1509 23.6746 28.3974 24.2077 26.5959 24.2085H26.0595V28.4369C26.0595 29.1615 26.6986 29.7495 27.4862 29.7495H28.4183C28.854 29.2192 29.5445 28.8744 30.3207 28.8744H30.3397C30.9704 28.8744 31.5752 29.1049 32.0211 29.5152C32.4671 29.9255 32.7176 30.4819 32.7176 31.0621C32.7176 31.6423 32.4671 32.1988 32.0211 32.6091C31.5752 33.0193 30.9704 33.2498 30.3397 33.2498H30.3207C29.5426 33.2498 28.8521 32.9068 28.4183 32.3748H27.4862C26.351 32.3748 25.2623 31.9599 24.4596 31.2214C23.6569 30.4829 23.206 29.4813 23.206 28.4369V24.2085H18.9257V31.0499C19.3293 31.3229 19.6288 31.7062 19.7815 32.1451C19.9343 32.5839 19.9325 33.056 19.7765 33.4939C19.6204 33.9318 19.3181 34.3131 18.9125 34.5836C18.5069 34.8541 18.0189 34.9998 17.518 35H17.499C16.9999 35 16.5135 34.8555 16.1086 34.5871C15.7037 34.3186 15.4009 33.9397 15.2431 33.5041C15.0853 33.0685 15.0804 32.5983 15.2292 32.16C15.3781 31.7217 15.673 31.3376 16.0722 31.0621V24.2085H11.792V28.4369C11.792 29.4813 11.3411 30.4829 10.5384 31.2214C9.73566 31.9599 8.64697 32.3748 7.51178 32.3748H6.57964C6.14781 32.9068 5.45726 33.2498 4.67731 33.2498H4.65829C4.02763 33.2498 3.4228 33.0193 2.97685 32.6091C2.53091 32.1988 2.28038 31.6423 2.28038 31.0621C2.28038 30.4819 2.53091 29.9255 2.97685 29.5152C3.4228 29.1049 4.02763 28.8744 4.65829 28.8744H4.67731C5.45726 28.8744 6.14591 29.2192 6.57964 29.7495H7.51178C7.89017 29.7495 8.25307 29.6112 8.52064 29.3651C8.7882 29.1189 8.93852 28.785 8.93852 28.4369V24.2085H8.40207C6.5866 24.2073 4.82032 23.6655 3.3673 22.6641C1.91428 21.6627 0.852563 20.2556 0.340878 18.6531C-0.170807 17.0505 -0.104974 15.3387 0.528534 13.7734C1.16204 12.2081 2.3292 10.8736 3.85551 9.96918C3.5682 7.82329 4.14137 5.65467 5.46758 3.86974C6.79379 2.08481 8.78201 0.807854 11.0596 0.275028ZM10.4357 21.5815H26.5978C27.8524 21.5803 29.0696 21.1883 30.0512 20.4695C31.0328 19.7507 31.721 18.7473 32.0038 17.6228C32.2865 16.4982 32.1472 15.3188 31.6084 14.2764C31.0696 13.234 30.1632 12.3901 29.0366 11.8821C28.7311 11.7446 28.489 11.5112 28.3541 11.224C28.2191 10.9368 28.2 10.6147 28.3004 10.3157C28.5906 9.44814 28.5754 8.51837 28.2569 7.65924C27.9384 6.80012 27.3328 6.05559 26.5268 5.53205C25.7208 5.00851 24.7555 4.73274 23.769 4.74414C22.7824 4.75553 21.825 5.05352 21.0335 5.59552C20.8804 5.70026 20.7059 5.77567 20.5206 5.81729C20.3352 5.85891 20.1426 5.86589 19.9542 5.83782C19.7659 5.80975 19.5855 5.74721 19.4239 5.65388C19.2623 5.56056 19.1226 5.43835 19.0132 5.29449C18.1045 4.10043 16.7712 3.23564 15.2434 2.84936C13.7157 2.46308 12.0893 2.57953 10.6449 3.17863C9.20046 3.77772 8.02865 4.82187 7.33163 6.13091C6.63462 7.43995 6.45612 8.93177 6.82694 10.349C6.90416 10.6429 6.86873 10.9523 6.72662 11.2249C6.58451 11.4976 6.34444 11.7167 6.04699 11.8454C4.90427 12.3391 3.97847 13.1763 3.42211 14.2189C2.86576 15.2615 2.71204 16.4474 2.98628 17.5812C3.26053 18.7149 3.94637 19.7289 4.93082 20.4561C5.91527 21.1832 7.13959 21.5802 8.40207 21.5815H10.4357Z" fill="#3ECB90"/>
</svg>
