<svg width="33" height="40" viewBox="0 0 33 40" fill="none" xmlns="http://www.w3.org/2000/svg">
<path fill-rule="evenodd" clip-rule="evenodd" d="M29.3709 7.95734L31.4875 21.9573V21.9407C32.1542 26.3573 32.5042 30.8907 32.5042 35.374C32.5042 35.924 32.1542 36.4073 31.6209 36.574L23.2875 39.074C23.0918 39.1255 22.8877 39.1368 22.6875 39.1073L1.02087 34.9407C0.717676 34.8877 0.445261 34.7232 0.257146 34.4796C0.0690296 34.2359 -0.0211903 33.9308 0.00420843 33.624L1.70421 11.974C1.75421 11.4573 2.10421 11.024 2.60421 10.874L6.82087 9.64068C6.87087 9.24068 6.93754 8.84068 7.00421 8.47401C8.10421 3.12401 11.5209 -0.575988 14.8542 0.0740119C15.9542 0.274012 16.8875 0.940679 17.6042 1.90735H17.7542C17.9592 1.90401 18.1709 1.90235 18.3709 1.94068C19.8709 2.22401 21.1042 3.42401 21.8542 5.25735L22.5875 5.04068H22.6209C22.7875 4.99068 22.9542 4.97401 23.1209 5.00735C23.1542 5.02401 23.1709 5.02401 23.2042 5.02401C23.3542 5.05735 23.5209 5.12401 23.6542 5.22401H23.6709L25.8375 6.89068H28.1375C28.7542 6.89068 29.2875 7.34068 29.3709 7.95734ZM19.0709 6.04068L19.4209 5.94068C19.2709 5.60735 19.1042 5.34068 18.9209 5.10735L18.9675 5.37401C19.0075 5.59235 19.0475 5.81734 19.0709 6.04068ZM16.2959 4.88235C15.5809 5.38235 14.8692 6.24735 14.2542 7.45901L16.6375 6.75901C16.5837 6.124 16.4693 5.49558 16.2959 4.88235ZM14.9542 2.77568C14.7764 2.64357 14.5714 2.5525 14.3542 2.50901H14.3709C12.7375 2.19235 10.3209 4.72568 9.45421 8.85901L11.2042 8.34234C12.0375 5.82568 13.4042 3.84234 14.9542 2.77568ZM21.6709 7.89234L4.10421 13.024L2.58754 32.7073L21.6709 36.374V7.89234ZM24.1709 36.204V8.75734L24.6542 9.12401C24.8709 9.29068 25.1375 9.39068 25.4209 9.39068H27.0542L29.0042 22.324C29.6042 26.324 29.9375 30.4073 29.9875 34.4573L24.1709 36.204ZM11.5725 13.6407C13.9892 12.5573 17.1392 13.724 18.0559 14.1073V14.1407C18.6892 14.4073 18.9892 15.1407 18.7225 15.774C18.5938 16.0786 18.3497 16.3197 18.0435 16.4446C17.7374 16.5696 17.3943 16.5682 17.0892 16.4407C15.7559 15.8907 13.7725 15.424 12.5892 15.9573C12.1225 16.174 11.8059 16.5407 11.6059 17.1073C11.0892 18.6073 12.6559 20.224 14.0559 21.324C18.0059 24.4407 17.3892 27.424 16.4059 28.6907C15.5559 29.8073 14.3225 30.5073 12.8559 30.674C12.5892 30.724 12.3392 30.724 12.0725 30.724C9.85587 30.724 7.75587 29.674 6.78921 28.8907C6.53306 28.6791 6.37031 28.3753 6.33601 28.0449C6.30172 27.7144 6.39864 27.3837 6.60587 27.124C6.81747 26.8679 7.12123 26.7051 7.45169 26.6708C7.78215 26.6365 8.11286 26.7334 8.37254 26.9407C9.12254 27.5407 10.9892 28.374 12.5725 28.174C13.3725 28.074 13.9892 27.7407 14.4392 27.1407C14.8225 26.624 14.9392 25.1573 12.5225 23.2573C8.82254 20.374 8.68921 17.874 9.23921 16.274C9.65588 15.0407 10.4559 14.1407 11.5725 13.6407Z" fill="#3ECB90"/>
</svg>
