<svg width="20" height="20" viewBox="0 0 20 20" fill="none" xmlns="http://www.w3.org/2000/svg">
<path d="M8.99935 12.4999V10.4999H10.9993V12.4999H8.99935ZM7.49935 5.41659H12.4993V4.17304C12.4993 4.10888 12.4726 4.05013 12.4191 3.99679C12.3658 3.94332 12.3071 3.91659 12.2429 3.91659H7.75581C7.69164 3.91659 7.63289 3.94332 7.57956 3.99679C7.52609 4.05013 7.49935 4.10888 7.49935 4.17304V5.41659ZM3.75581 16.5833C3.38067 16.5833 3.06358 16.4537 2.80456 16.1947C2.54553 15.9357 2.41602 15.6186 2.41602 15.2435V12.0416H7.91602V12.9133C7.91602 13.1045 7.9799 13.2639 8.10768 13.3916C8.23532 13.5194 8.39477 13.5833 8.58602 13.5833H11.4127C11.6039 13.5833 11.7634 13.5194 11.891 13.3916C12.0188 13.2639 12.0827 13.1045 12.0827 12.9133V12.0416H17.5827V15.2435C17.5827 15.6186 17.4532 15.9357 17.1941 16.1947C16.9351 16.4537 16.618 16.5833 16.2429 16.5833H3.75581ZM2.41602 10.9583V6.75638C2.41602 6.38124 2.54553 6.06416 2.80456 5.80513C3.06358 5.5461 3.38067 5.41659 3.75581 5.41659H6.41602V4.16867C6.41602 3.79228 6.54553 3.47561 6.80456 3.21867C7.06359 2.96172 7.38067 2.83325 7.75581 2.83325H12.2429C12.618 2.83325 12.9351 2.96277 13.1941 3.22179C13.4532 3.48082 13.5827 3.7979 13.5827 4.17304V5.41659H16.2429C16.618 5.41659 16.9351 5.5461 17.1941 5.80513C17.4532 6.06416 17.5827 6.38124 17.5827 6.75638V10.9583H12.0827V10.0866C12.0827 9.89534 12.0188 9.73589 11.891 9.60825C11.7634 9.48047 11.6039 9.41659 11.4127 9.41659H8.58602C8.39477 9.41659 8.23532 9.48047 8.10768 9.60825C7.9799 9.73589 7.91602 9.89534 7.91602 10.0866V10.9583H2.41602Z" fill="#009999"/>
</svg>
