<svg width="20" height="20" viewBox="0 0 20 20" fill="none" xmlns="http://www.w3.org/2000/svg">
<path d="M5.03143 14.5834L3.5531 16.0617C3.34213 16.2727 3.09984 16.3205 2.82622 16.2051C2.55275 16.0897 2.41602 15.8835 2.41602 15.5865V3.75654C2.41602 3.3814 2.54553 3.06432 2.80456 2.80529C3.06358 2.54626 3.38067 2.41675 3.75581 2.41675H16.2429C16.618 2.41675 16.9351 2.54626 17.1941 2.80529C17.4532 3.06432 17.5827 3.3814 17.5827 3.75654V13.2436C17.5827 13.6188 17.4532 13.9358 17.1941 14.1949C16.9351 14.4539 16.618 14.5834 16.2429 14.5834H5.03143ZM5.74935 11.7917H11.2493C11.4028 11.7917 11.5314 11.7402 11.6352 11.6372C11.7391 11.5341 11.791 11.4065 11.791 11.2542C11.791 11.1019 11.7391 10.9729 11.6352 10.8672C11.5314 10.7613 11.4028 10.7084 11.2493 10.7084H5.74935C5.59588 10.7084 5.46727 10.7599 5.36352 10.863C5.25963 10.9661 5.20768 11.0937 5.20768 11.2459C5.20768 11.3983 5.25963 11.5273 5.36352 11.633C5.46727 11.7388 5.59588 11.7917 5.74935 11.7917ZM5.74935 9.04175H14.2493C14.4028 9.04175 14.5314 8.99022 14.6352 8.88717C14.7391 8.78411 14.791 8.65647 14.791 8.50425C14.791 8.35189 14.7391 8.22286 14.6352 8.11716C14.5314 8.01133 14.4028 7.95841 14.2493 7.95841H5.74935C5.59588 7.95841 5.46727 8.00994 5.36352 8.113C5.25963 8.21605 5.20768 8.34369 5.20768 8.49591C5.20768 8.64828 5.25963 8.7773 5.36352 8.883C5.46727 8.98883 5.59588 9.04175 5.74935 9.04175ZM5.74935 6.29175H14.2493C14.4028 6.29175 14.5314 6.24022 14.6352 6.13717C14.7391 6.03411 14.791 5.90647 14.791 5.75425C14.791 5.60189 14.7391 5.47286 14.6352 5.36716C14.5314 5.26133 14.4028 5.20841 14.2493 5.20841H5.74935C5.59588 5.20841 5.46727 5.25994 5.36352 5.363C5.25963 5.46605 5.20768 5.59369 5.20768 5.74591C5.20768 5.89828 5.25963 6.0273 5.36352 6.133C5.46727 6.23883 5.59588 6.29175 5.74935 6.29175Z" fill="#009999"/>
</svg>
