<svg width="20" height="20" viewBox="0 0 20 20" fill="none" xmlns="http://www.w3.org/2000/svg">
<path d="M5.03143 14.5834L3.5531 16.0617C3.34213 16.2727 3.09984 16.3209 2.82622 16.2063C2.55275 16.0917 2.41602 15.8852 2.41602 15.5865V3.75654C2.41602 3.3814 2.54553 3.06432 2.80456 2.80529C3.06358 2.54626 3.38067 2.41675 3.75581 2.41675H16.2429C16.618 2.41675 16.9351 2.54626 17.1941 2.80529C17.4532 3.06432 17.5827 3.3814 17.5827 3.75654V13.2436C17.5827 13.6188 17.4532 13.9358 17.1941 14.1949C16.9351 14.4539 16.618 14.5834 16.2429 14.5834H5.03143ZM4.58268 13.5001H16.2429C16.3071 13.5001 16.3658 13.4733 16.4191 13.4199C16.4726 13.3665 16.4993 13.3078 16.4993 13.2436V3.75654C16.4993 3.69237 16.4726 3.63362 16.4191 3.58029C16.3658 3.52682 16.3071 3.50008 16.2429 3.50008H3.75581C3.69164 3.50008 3.63289 3.52682 3.57956 3.58029C3.52609 3.63362 3.49935 3.69237 3.49935 3.75654V14.5915L4.58268 13.5001ZM5.74935 11.7917H11.2493C11.4031 11.7917 11.5318 11.7403 11.6354 11.6374C11.7391 11.5346 11.791 11.407 11.791 11.2545C11.791 11.102 11.7391 10.9729 11.6354 10.8672C11.5318 10.7613 11.4031 10.7084 11.2493 10.7084H5.74935C5.5956 10.7084 5.46692 10.7599 5.36331 10.8628C5.25956 10.9656 5.20768 11.0932 5.20768 11.2457C5.20768 11.3982 5.25956 11.5273 5.36331 11.633C5.46692 11.7388 5.5956 11.7917 5.74935 11.7917ZM5.74935 9.04175H14.2493C14.4031 9.04175 14.5318 8.99029 14.6354 8.88737C14.7391 8.7846 14.791 8.65696 14.791 8.50446C14.791 8.35196 14.7391 8.22286 14.6354 8.11716C14.5318 8.01133 14.4031 7.95841 14.2493 7.95841H5.74935C5.5956 7.95841 5.46692 8.00987 5.36331 8.11279C5.25956 8.21557 5.20768 8.34321 5.20768 8.49571C5.20768 8.64821 5.25956 8.7773 5.36331 8.883C5.46692 8.98883 5.5956 9.04175 5.74935 9.04175ZM5.74935 6.29175H14.2493C14.4031 6.29175 14.5318 6.24029 14.6354 6.13737C14.7391 6.0346 14.791 5.90696 14.791 5.75446C14.791 5.60196 14.7391 5.47286 14.6354 5.36716C14.5318 5.26133 14.4031 5.20841 14.2493 5.20841H5.74935C5.5956 5.20841 5.46692 5.25987 5.36331 5.36279C5.25956 5.46557 5.20768 5.59321 5.20768 5.74571C5.20768 5.89821 5.25956 6.0273 5.36331 6.133C5.46692 6.23883 5.5956 6.29175 5.74935 6.29175Z" fill="#009999"/>
</svg>
